<svg width="826" height="156" viewBox="0 0 826 156" fill="none" xmlns="http://www.w3.org/2000/svg">
<path fill-rule="evenodd" clip-rule="evenodd" d="M544.74 22.5713C545.809 23.76 547.64 23.8563 548.829 22.7866C550.018 21.7168 550.114 19.886 549.044 18.6973L533.295 1.19815L531.175 3.10572L533.295 1.19815C531.857 -0.399375 529.352 -0.399392 527.914 1.19815L512.165 18.6973C511.095 19.886 511.192 21.7168 512.38 22.7866C513.569 23.8563 515.4 23.76 516.469 22.5713L530.605 6.86568L544.74 22.5713ZM531.159 3.12032L531.175 3.10572L548.829 22.7866L531.159 3.12032ZM548.745 40.9558C547.517 41.9795 545.691 41.8136 544.667 40.5851L530.604 23.7096L516.542 40.5851C515.518 41.8136 513.692 41.9795 512.464 40.9558C511.235 39.932 511.069 38.1062 512.093 36.8777L527.824 18.0003C529.271 16.2638 531.938 16.2638 533.385 18.0003L549.116 36.8777C550.14 38.1062 549.974 39.932 548.745 40.9558ZM544.74 56.5937C545.809 57.7824 547.64 57.8787 548.829 56.8089C550.018 55.7392 550.114 53.9084 549.044 52.7197L533.295 35.2205C531.857 33.623 529.352 33.623 527.914 35.2205L512.165 52.7197C511.095 53.9084 511.192 55.7392 512.38 56.8089C513.569 57.8787 515.4 57.7824 516.469 56.5937L530.605 40.8881L544.74 56.5937ZM531.159 37.1427L531.175 37.1281L548.829 56.8089L531.159 37.1427ZM530.243 51.7612C531.842 51.7612 533.138 53.0575 533.138 54.6567L533.138 75.7004C557.323 75.9079 581.475 79.659 604.807 86.9449L640.802 98.1848V82.1093C640.802 80.7118 641.935 79.5788 643.332 79.5788C644.73 79.5788 645.863 80.7118 645.863 82.1093V99.7653L702.684 117.509V100.894C702.684 99.6306 703.708 98.6066 704.972 98.6066C706.235 98.6066 707.259 99.6306 707.259 100.894V118.937L825.948 156L0 148.399L69.7207 126.415V111.813C69.7207 110.859 70.4941 110.085 71.4482 110.085C72.4024 110.085 73.1758 110.859 73.1758 111.813V125.326L98.2867 117.408C106.104 114.943 114.017 112.874 121.998 111.203V93.8437C121.998 92.4192 123.153 91.2645 124.577 91.2645C126.002 91.2645 127.157 92.4192 127.157 93.8437V110.18C159.334 104.153 192.488 104.55 224.688 111.461L245.113 115.845C247.977 116.46 250.849 117.026 253.726 117.543V102.457C253.726 101.301 254.663 100.365 255.819 100.365C256.975 100.365 257.911 101.301 257.911 102.457V118.259C284.893 122.654 312.357 122.768 339.296 118.638V103.065C339.296 101.802 340.32 100.778 341.584 100.778C342.847 100.778 343.871 101.802 343.871 103.065V117.895C353.327 116.272 362.71 114.125 371.978 111.453L390.126 106.222V93.5638C390.126 92.6365 390.878 91.8849 391.805 91.8849C392.732 91.8849 393.484 92.6365 393.484 93.5638L393.484 105.254L432.087 94.1272V84.056C432.087 82.9541 432.98 82.0608 434.082 82.0608C435.184 82.0608 436.077 82.9541 436.077 84.056V92.977L462.446 85.3764C467.67 83.8704 472.931 82.5403 478.221 81.3858V66.6645C478.221 65.6298 479.059 64.7909 480.094 64.7909C481.129 64.7909 481.968 65.6298 481.968 66.6645V80.5982C496.952 77.5695 512.143 75.9436 527.347 75.7184V54.6567C527.347 53.0576 528.643 51.7612 530.243 51.7612ZM341.869 92.1894L353.035 104.596C353.88 105.534 355.326 105.611 356.265 104.766C357.204 103.921 357.28 102.474 356.435 101.535L343.995 87.7125C342.859 86.4506 340.88 86.4506 339.744 87.7125L327.304 101.535C326.459 102.474 326.535 103.921 327.474 104.766C328.413 105.611 329.859 105.534 330.704 104.596L341.869 92.1894ZM356.265 104.766L341.444 89.2426L341.455 89.2517L356.265 104.766ZM356.465 88.4172C357.291 89.3724 357.187 90.8168 356.232 91.6434C355.277 92.47 353.832 92.3658 353.006 91.4106L341.869 78.5422L330.733 91.4106C329.907 92.3658 328.462 92.47 327.507 91.6434C326.552 90.8168 326.448 89.3724 327.274 88.4172L339.708 74.0499C340.848 72.7324 342.891 72.7324 344.031 74.0499L356.465 88.4172ZM341.455 62.3769L356.265 77.8907L341.444 62.3677L341.455 62.3769ZM356.265 77.8907C357.204 77.0457 357.28 75.5995 356.435 74.6606L343.995 60.8377C342.859 59.5757 340.88 59.5758 339.744 60.8377L327.304 74.6606C326.459 75.5995 326.535 77.0457 327.474 77.8907C328.413 78.7357 329.859 78.6596 330.704 77.7207L341.869 65.3145L353.035 77.7207C353.88 78.6596 355.326 78.7357 356.265 77.8907ZM705.258 90.0178L716.423 102.424C717.268 103.363 718.714 103.439 719.653 102.594C720.592 101.749 720.668 100.303 719.823 99.3638L707.383 85.5409C706.247 84.279 704.268 84.279 703.132 85.5409L690.692 99.3638C689.847 100.303 689.923 101.749 690.862 102.594C691.801 103.439 693.247 103.363 694.092 102.424L705.258 90.0178ZM719.653 102.594L704.832 87.071L704.843 87.0801L719.653 102.594ZM719.853 86.2455C720.679 87.2007 720.575 88.6452 719.62 89.4718C718.665 90.2984 717.22 90.1941 716.394 89.239L705.258 76.3706L694.121 89.239C693.295 90.1941 691.85 90.2984 690.895 89.4718C689.94 88.6452 689.836 87.2007 690.662 86.2455L703.096 71.8783C704.236 70.5607 706.279 70.5607 707.419 71.8783L719.853 86.2455ZM704.843 60.2052L719.653 75.7191L704.832 60.1961L704.843 60.2052ZM719.653 75.7191C720.592 74.874 720.668 73.4278 719.823 72.4889L707.383 58.666C706.247 57.4041 704.268 57.4041 703.132 58.666L690.692 72.4889C689.847 73.4278 689.923 74.874 690.862 75.7191C691.801 76.5641 693.247 76.488 694.092 75.549L705.258 63.1429L716.423 75.549C717.268 76.488 718.714 76.5641 719.653 75.7191ZM656.002 83.8023C656.937 84.8411 658.537 84.9253 659.576 83.9904C660.615 83.0555 660.699 81.4554 659.764 80.4166L646 65.1232C644.743 63.727 642.554 63.727 641.297 65.1232L627.533 80.4166C626.598 81.4554 626.683 83.0555 627.721 83.9904C628.76 84.9253 630.36 84.8411 631.295 83.8023L643.649 70.0763L656.002 83.8023ZM659.539 69.4723C658.482 70.3869 656.884 70.2716 655.969 69.2148L643.649 54.9774L631.328 69.2147C630.413 70.2716 628.815 70.3869 627.758 69.4723C626.702 68.5578 626.586 66.9597 627.501 65.9029L641.257 50.0072C642.518 48.5495 644.779 48.5495 646.04 50.0072L659.796 65.9029C660.711 66.9597 660.596 68.5578 659.539 69.4723ZM656.002 54.0684C656.937 55.1072 658.537 55.1914 659.576 54.2565C660.615 53.3216 660.699 51.7215 659.764 50.6827L646 35.3893C644.743 33.9931 642.554 33.9931 641.297 35.3893L627.533 50.6827C626.598 51.7215 626.683 53.3216 627.721 54.2565C628.76 55.1914 630.36 55.1072 631.295 54.0684L643.649 40.3424L656.002 54.0684ZM444.072 85.3908C444.809 86.2099 446.07 86.2763 446.889 85.5391C447.708 84.8019 447.775 83.5404 447.038 82.7213L436.185 70.663C435.195 69.5622 433.468 69.5622 432.478 70.663L421.625 82.7213C420.888 83.5404 420.954 84.8019 421.774 85.5391C422.593 86.2763 423.854 86.2099 424.591 85.3908L434.331 74.5684L444.072 85.3908ZM446.86 74.0922C446.027 74.8132 444.767 74.7223 444.046 73.8891L434.331 62.6635L424.617 73.8891C423.896 74.7223 422.636 74.8132 421.803 74.0922C420.969 73.3711 420.878 72.111 421.6 71.2778L432.446 58.7446C433.44 57.5953 435.223 57.5953 436.217 58.7446L447.063 71.2778C447.784 72.111 447.694 73.3711 446.86 74.0922ZM444.072 61.9468C444.809 62.7658 446.07 62.8322 446.889 62.0951C447.708 61.3579 447.775 60.0963 447.038 59.2773L436.185 47.219C435.195 46.1182 433.468 46.1182 432.478 47.219L421.625 59.2773C420.888 60.0963 420.954 61.3579 421.774 62.0951C422.593 62.8322 423.854 62.7658 424.591 61.9468L434.331 51.1244L444.072 61.9468ZM400.211 94.687C400.831 95.3762 401.893 95.4321 402.582 94.8118C403.271 94.1915 403.327 93.13 402.707 92.4407L393.575 82.2942C392.741 81.3679 391.289 81.3679 390.455 82.2942L381.323 92.4407C380.703 93.13 380.759 94.1915 381.448 94.8118C382.137 95.4321 383.199 95.3762 383.819 94.687L392.015 85.5804L400.211 94.687ZM402.557 85.1796C401.856 85.7864 400.796 85.7098 400.189 85.0087L392.015 75.5628L383.84 85.0087C383.234 85.7098 382.173 85.7863 381.472 85.1796C380.771 84.5728 380.695 83.5126 381.301 82.8114L390.428 72.2652C391.265 71.2981 392.765 71.2981 393.602 72.2652L402.728 82.8114C403.335 83.5126 403.259 84.5728 402.557 85.1796ZM400.211 74.9597C400.831 75.6489 401.893 75.7048 402.582 75.0845C403.271 74.4642 403.327 73.4026 402.707 72.7134L393.575 62.5668C392.741 61.6405 391.289 61.6405 390.455 62.5668L381.323 72.7134C380.703 73.4026 380.759 74.4642 381.448 75.0845C382.137 75.7048 383.199 75.6489 383.819 74.9597L392.015 65.853L400.211 74.9597ZM489.475 67.918C490.167 68.6871 491.351 68.7495 492.121 68.0573C492.89 67.3651 492.952 66.1804 492.26 65.4113L482.069 54.0883C481.139 53.0546 479.518 53.0546 478.588 54.0883L468.397 65.4113C467.705 66.1804 467.767 67.3651 468.536 68.0573C469.305 68.7495 470.49 68.6871 471.182 67.918L480.328 57.7555L489.475 67.918ZM492.093 57.3083C491.311 57.9854 490.128 57.9 489.45 57.1176L480.328 46.5765L471.206 57.1176C470.529 57.9 469.346 57.9854 468.563 57.3083C467.781 56.6312 467.696 55.448 468.373 54.6655L478.557 42.8966C479.491 41.8173 481.165 41.8173 482.099 42.8966L492.284 54.6655C492.961 55.448 492.876 56.6312 492.093 57.3083ZM489.475 45.9035C490.167 46.6726 491.351 46.7349 492.121 46.0427C492.89 45.3505 492.952 44.1659 492.26 43.3967L482.069 32.0737C481.139 31.04 479.518 31.0401 478.588 32.0737L468.397 43.3967C467.705 44.1659 467.767 45.3505 468.536 46.0427C469.305 46.7349 470.49 46.6726 471.182 45.9035L480.328 35.741L489.475 45.9035ZM80.0977 112.969C80.736 113.678 81.8283 113.735 82.5375 113.097C83.2467 112.459 83.3042 111.366 82.6659 110.657L73.2693 100.216C72.4115 99.2633 70.9169 99.2633 70.0591 100.216L60.6624 110.657C60.0242 111.366 60.0817 112.459 60.7909 113.097C61.5 113.735 62.5924 113.678 63.2306 112.969L71.6642 103.598L80.0977 112.969ZM82.5123 103.186C81.7908 103.81 80.6998 103.731 80.0755 103.01L71.6642 93.29L63.2529 103.01C62.6285 103.731 61.5375 103.81 60.816 103.186C60.0946 102.561 60.0158 101.47 60.6402 100.749L70.0312 89.8969C70.8924 88.9017 72.4359 88.9017 73.2971 89.8969L82.6882 100.749C83.3125 101.47 83.2338 102.561 82.5123 103.186ZM71.304 90.9983L71.3205 91.0126L82.5123 103.186L71.304 90.9983ZM80.0977 92.6695C80.736 93.3787 81.8283 93.4362 82.5375 92.7979C83.2467 92.1596 83.3042 91.0673 82.6659 90.3581L73.2693 79.9174C72.4115 78.9643 70.9169 78.9643 70.0591 79.9174L60.6624 90.3581C60.0242 91.0673 60.0817 92.1596 60.7909 92.7979C61.5 93.4362 62.5924 93.3787 63.2306 92.6695L71.6642 83.2989L80.0977 92.6695ZM137.491 95.5691C138.444 96.6278 140.074 96.7137 141.133 95.7608C142.192 94.8079 142.278 93.1771 141.325 92.1183L127.296 76.5308C126.015 75.1077 123.784 75.1077 122.503 76.5308L108.475 92.1183C107.522 93.1771 107.608 94.8079 108.666 95.7608C109.725 96.7137 111.356 96.6278 112.309 95.5691L124.9 81.5791L137.491 95.5691ZM141.096 80.9635C140.019 81.8956 138.39 81.7781 137.458 80.701L124.9 66.1898L112.342 80.701C111.41 81.7781 109.781 81.8956 108.704 80.9635C107.627 80.0314 107.509 78.4026 108.441 77.3254L122.462 61.124C123.748 59.6383 126.052 59.6383 127.338 61.124L141.358 77.3254C142.29 78.4026 142.173 80.0314 141.096 80.9635ZM137.491 65.2634C138.444 66.3222 140.074 66.408 141.133 65.4551C142.192 64.5022 142.278 62.8714 141.325 61.8126L127.296 46.2251C126.015 44.8021 123.784 44.802 122.503 46.2251L108.475 61.8126C107.522 62.8714 107.608 64.5022 108.666 65.4551C109.725 66.408 111.356 66.3222 112.309 65.2634L124.9 51.2734L137.491 65.2634ZM266.296 103.857C267.069 104.716 268.392 104.786 269.251 104.013C270.11 103.24 270.18 101.916 269.406 101.057L258.025 88.4109C256.986 87.2564 255.175 87.2564 254.136 88.4109L242.754 101.057C241.981 101.916 242.051 103.24 242.91 104.013C243.769 104.786 245.092 104.716 245.865 103.857L256.08 92.5068L266.296 103.857ZM256.588 89.7039L256.601 89.692L269.251 104.013L256.588 89.7039ZM269.22 92.0073C268.347 92.7636 267.025 92.6682 266.269 91.7943L256.08 80.0211L245.892 91.7943C245.136 92.6682 243.814 92.7636 242.94 92.0073C242.067 91.2511 241.971 89.9296 242.727 89.0557L254.103 75.9112C255.146 74.7057 257.015 74.7058 258.058 75.9111L269.433 89.0557C270.19 89.9296 270.094 91.2511 269.22 92.0073ZM266.296 79.2694C267.069 80.1285 268.392 80.1981 269.251 79.425C270.11 78.6519 270.18 77.3288 269.406 76.4697L258.025 63.8233C256.986 62.6688 255.175 62.6688 254.136 63.8233L242.754 76.4697C241.981 77.3288 242.051 78.6519 242.91 79.425C243.769 80.1981 245.092 80.1285 245.865 79.2694L256.08 67.9191L266.296 79.2694ZM256.588 65.1162L256.601 65.1043L269.251 79.425L256.588 65.1162Z" fill="#EDEAE2"/>
</svg>
