<svg width="428" height="92" viewBox="0 0 428 92" fill="none" xmlns="http://www.w3.org/2000/svg">
<path d="M89.6872 42.9046C90.2812 42.2908 90.6773 41.2512 90.8753 39.7858V22.2609C90.6773 20.7956 90.2812 19.7559 89.6872 19.1421H104.182L105.163 24.0431C104.727 23.6471 104.311 23.4094 103.915 23.3302C103.539 23.2312 103.014 23.1817 102.341 23.1817H95.1526V28.9738H101.093C101.628 28.9738 102.103 28.9441 102.519 28.8847C102.935 28.8055 103.341 28.6372 103.737 28.3798V33.6075C103.341 33.3501 102.935 33.1917 102.519 33.1323C102.103 33.0531 101.638 33.0135 101.123 33.0135H95.1526V39.7858C95.3506 41.2512 95.7466 42.2908 96.3407 42.9046H89.6872Z" fill="#9B9795"/>
<path d="M110.488 42.9046C111.261 42.0333 111.666 40.9937 111.706 39.7858V22.2609C111.686 21.8451 111.567 21.3203 111.35 20.6866C111.132 20.053 110.845 19.5381 110.488 19.1421H120.142C121.686 19.1421 123.082 19.4589 124.33 20.0926C125.577 20.7263 126.558 21.6074 127.271 22.7362C127.983 23.8451 128.34 25.0827 128.34 26.4491V26.5382C128.34 30.0828 126.795 32.5283 123.706 33.8749L125.934 37.8848C126.548 38.9937 127.181 40.0036 127.835 40.9145C128.488 41.8056 129.211 42.469 130.003 42.9046H122.667C122.865 42.7066 122.964 42.4096 122.964 42.0135C122.964 41.5779 122.865 41.1422 122.667 40.7066L119.667 35.2115L115.954 36.2511V39.7858C115.973 40.3601 116.072 40.9046 116.251 41.4195C116.429 41.9145 116.726 42.4096 117.142 42.9046H110.488ZM120.736 30.6669C121.845 30.4095 122.676 29.9639 123.231 29.3303C123.805 28.6768 124.092 27.8946 124.092 26.9837V26.6273C124.092 25.6372 123.766 24.8154 123.112 24.1619C122.459 23.5085 121.548 23.1817 120.379 23.1817H115.954V31.8848L120.736 30.6669Z" fill="#9B9795"/>
<path d="M134.508 42.9046C134.924 42.4492 135.221 41.9343 135.399 41.3601C135.597 40.766 135.706 40.2412 135.726 39.7858V22.2609C135.706 21.8055 135.597 21.2906 135.399 20.7164C135.221 20.1223 134.924 19.5975 134.508 19.1421H141.162C140.746 19.5975 140.449 20.1223 140.271 20.7164C140.093 21.2906 139.994 21.8055 139.974 22.2609V39.7858C139.994 40.2412 140.093 40.766 140.271 41.3601C140.449 41.9343 140.746 42.4492 141.162 42.9046H134.508Z" fill="#9B9795"/>
<path d="M147.042 42.9046C147.755 42.1126 148.161 41.1918 148.26 40.1422V22.35C148.22 21.0827 147.814 20.0134 147.042 19.1421H161.685L162.666 24.1619C162.25 23.7263 161.804 23.4589 161.329 23.3599C160.854 23.2411 160.25 23.1817 159.517 23.1817H152.507V28.9441H159.042C159.576 28.9441 160.042 28.9144 160.438 28.855C160.854 28.7758 161.26 28.6075 161.656 28.3501V33.6075C161.26 33.3501 160.854 33.1917 160.438 33.1323C160.042 33.0531 159.596 33.0135 159.101 33.0135H152.507V38.865H160.468C161.2 38.865 161.834 38.8155 162.369 38.7165C162.903 38.5977 163.349 38.3303 163.705 37.9145L162.606 42.9343L147.042 42.9046Z" fill="#9B9795"/>
<path d="M169.205 42.9046C169.601 42.4096 169.888 41.9145 170.066 41.4195C170.264 40.9046 170.373 40.3601 170.393 39.7858V22.1718C170.175 20.7461 169.779 19.7361 169.205 19.1421H175.294C175.116 19.4193 175.027 19.7064 175.027 20.0035C175.027 20.2411 175.106 20.548 175.264 20.9243L183.64 33.9343V22.2609C183.601 21.1322 183.205 20.0926 182.452 19.1421H189.106C188.353 20.0926 187.957 21.1322 187.918 22.2609V39.8452C187.938 40.4393 188.037 40.9739 188.215 41.4492C188.413 41.9244 188.71 42.4096 189.106 42.9046H182.928C183.264 42.568 183.433 42.1324 183.433 41.5977C183.433 41.3403 183.373 41.063 183.254 40.766L174.67 27.5778V39.7858C174.69 40.3601 174.789 40.9046 174.967 41.4195C175.165 41.9145 175.462 42.4096 175.858 42.9046H169.205Z" fill="#9B9795"/>
<path d="M195.115 42.9046C195.412 42.6076 195.63 42.2116 195.769 41.7165C195.927 41.2017 196.066 40.6274 196.184 39.9937V22.053C196.066 21.4193 195.927 20.855 195.769 20.3599C195.63 19.8451 195.412 19.4391 195.115 19.1421H203.67C205.888 19.1421 207.868 19.647 209.61 20.6569C211.373 21.6471 212.739 23.0233 213.709 24.7857C214.699 26.5481 215.195 28.5283 215.195 30.7263V31.3204C215.195 33.5184 214.699 35.4986 213.709 37.261C212.739 39.0234 211.373 40.4096 209.61 41.4195C207.868 42.4096 205.888 42.9046 203.67 42.9046H195.115ZM203.462 38.865C205.818 38.865 207.65 38.1917 208.957 36.8452C210.264 35.4986 210.917 33.6471 210.917 31.2907V30.756C210.917 28.3996 210.264 26.5481 208.957 25.2015C207.65 23.855 205.818 23.1817 203.462 23.1817H200.432V38.865H203.462Z" fill="#9B9795"/>
<path d="M227.626 43.3502C224.794 43.3502 222.26 42.6967 220.022 41.3898V35.5382C220.715 36.766 221.685 37.6967 222.933 38.3303C224.2 38.964 225.646 39.2907 227.27 39.3106C228.557 39.3106 229.725 39.1026 230.775 38.6868C231.844 38.2709 232.418 37.6571 232.497 36.8452C232.577 36.1917 232.408 35.6274 231.992 35.1521C231.577 34.6769 231.032 34.2709 230.359 33.9343C229.705 33.5976 228.784 33.2115 227.596 32.7758C226.012 32.1818 224.705 31.6174 223.675 31.0828C222.666 30.5481 221.794 29.8154 221.062 28.8847C220.329 27.954 219.953 26.7857 219.933 25.3798C219.933 24.1124 220.289 22.9738 221.002 21.9639C221.735 20.9342 222.755 20.1322 224.062 19.5579C225.369 18.9837 226.874 18.6965 228.577 18.6965C231.289 18.6965 233.537 19.3005 235.319 20.5084V26.0926C234.547 25.0035 233.527 24.1817 232.26 23.6273C230.992 23.053 229.725 22.7659 228.458 22.7659C227.27 22.7659 226.279 22.9738 225.487 23.3896C224.695 23.8055 224.299 24.4293 224.299 25.2609C224.299 25.855 224.517 26.3699 224.953 26.8055C225.388 27.2412 225.933 27.6174 226.586 27.9342C227.24 28.2313 228.141 28.5877 229.289 29.0035C230.893 29.5778 232.19 30.1224 233.18 30.6372C234.19 31.1521 235.052 31.8649 235.765 32.7758C236.497 33.6867 236.864 34.8254 236.864 36.1917C236.864 37.6175 236.458 38.8749 235.646 39.964C234.854 41.0531 233.755 41.8947 232.349 42.4888C230.963 43.0631 229.388 43.3502 227.626 43.3502Z" fill="#9B9795"/>
<path d="M265.767 43.2611C263.51 43.2611 261.451 42.7165 259.589 41.6274C257.728 40.5185 256.253 39.0333 255.163 37.1719C254.094 35.2907 253.559 33.2313 253.559 30.9937C253.559 28.7758 254.094 26.7362 255.163 24.8748C256.253 22.9936 257.728 21.5084 259.589 20.4193C261.451 19.3104 263.51 18.7559 265.767 18.7559C267.965 18.7559 269.995 19.3104 271.857 20.4193C273.718 21.5084 275.193 22.9936 276.282 24.8748C277.391 26.756 277.946 28.7956 277.946 30.9937C277.946 33.2115 277.391 35.261 276.282 37.1422C275.193 39.0234 273.718 40.5185 271.857 41.6274C269.995 42.7165 267.965 43.2611 265.767 43.2611ZM265.767 39.2214C267.272 39.2214 268.629 38.8551 269.837 38.1224C271.045 37.3699 271.985 36.3699 272.659 35.1224C273.352 33.8551 273.698 32.4788 273.698 30.9937C273.698 29.5085 273.352 28.1421 272.659 26.8946C271.985 25.6273 271.045 24.6273 269.837 23.8946C268.629 23.1619 267.272 22.7956 265.767 22.7956C264.243 22.7956 262.876 23.1619 261.668 23.8946C260.46 24.6273 259.52 25.6174 258.847 26.8649C258.173 28.1124 257.837 29.4887 257.837 30.9937C257.837 32.4986 258.173 33.8848 258.847 35.1521C259.52 36.3996 260.46 37.3897 261.668 38.1224C262.876 38.8551 264.243 39.2214 265.767 39.2214Z" fill="#9B9795"/>
<path d="M282.92 42.9046C283.276 42.5284 283.543 42.0432 283.722 41.4492C283.9 40.8551 284.029 40.3007 284.108 39.7858V22.2609C284.029 21.7461 283.9 21.1916 283.722 20.5975C283.543 20.0035 283.276 19.5183 282.92 19.1421H297.385L298.395 24.0431C297.959 23.6471 297.544 23.4094 297.147 23.3302C296.751 23.2312 296.217 23.1817 295.544 23.1817H288.355V28.9738H294.296C294.831 28.9738 295.306 28.9441 295.722 28.8847C296.157 28.8055 296.573 28.6372 296.969 28.3798V33.6075C296.573 33.3501 296.167 33.1917 295.751 33.1323C295.336 33.0531 294.87 33.0135 294.355 33.0135H288.355V39.7858C288.435 40.3007 288.563 40.8551 288.741 41.4492C288.939 42.0432 289.217 42.5284 289.573 42.9046H282.92Z" fill="#9B9795"/>
<path d="M314.865 42.9046C315.281 42.4492 315.578 41.9343 315.756 41.3601C315.935 40.766 316.034 40.2412 316.053 39.7858V22.2609C316.034 21.8055 315.935 21.2906 315.756 20.7164C315.578 20.1223 315.281 19.5975 314.865 19.1421H321.519C321.103 19.5975 320.806 20.1223 320.628 20.7164C320.449 21.2906 320.35 21.8055 320.331 22.2609V38.865H328.469C329.103 38.865 329.638 38.8056 330.073 38.6868C330.529 38.568 331.004 38.261 331.499 37.766L330.578 42.9046H314.865Z" fill="#9B9795"/>
<path d="M335.203 42.9046C335.995 42.1522 336.639 41.162 337.134 39.9343L343.075 21.5777C343.154 21.1025 343.193 20.7758 343.193 20.5975C343.193 19.9837 343.085 19.4985 342.867 19.1421H349.936C349.718 19.4985 349.609 19.9837 349.609 20.5975C349.609 20.9936 349.659 21.3797 349.758 21.756L355.788 40.2016C356.203 41.2314 356.807 42.1324 357.6 42.9046H351.095C351.293 42.6472 351.392 42.1621 351.392 41.4492C351.392 40.9937 351.352 40.6076 351.273 40.2908L350.411 37.5581L342.391 37.5284L341.471 40.3799C341.411 40.6967 341.382 41.0234 341.382 41.3601C341.382 42.1125 341.5 42.6274 341.738 42.9046H335.203ZM346.372 23.9837L343.253 33.6075H349.55L346.372 23.9837Z" fill="#9B9795"/>
<path d="M361.803 42.9046C362.199 42.4096 362.486 41.9145 362.665 41.4195C362.863 40.9046 362.972 40.3601 362.991 39.7858V22.1718C362.773 20.7461 362.377 19.7361 361.803 19.1421H367.892C367.714 19.4193 367.625 19.7064 367.625 20.0035C367.625 20.2411 367.704 20.548 367.863 20.9243L376.239 33.9343V22.2609C376.199 21.1322 375.803 20.0926 375.051 19.1421H381.704C380.952 20.0926 380.556 21.1322 380.516 22.2609V39.8452C380.536 40.4393 380.635 40.9739 380.813 41.4492C381.011 41.9244 381.308 42.4096 381.704 42.9046H375.526C375.863 42.568 376.031 42.1324 376.031 41.5977C376.031 41.3403 375.972 41.063 375.853 40.766L367.269 27.5778V39.7858C367.288 40.3601 367.387 40.9046 367.566 41.4195C367.764 41.9145 368.061 42.4096 368.457 42.9046H361.803Z" fill="#9B9795"/>
<path d="M387.535 42.9046C388.248 42.1126 388.654 41.1918 388.753 40.1422V22.35C388.714 21.0827 388.308 20.0134 387.535 19.1421H402.179L403.159 24.1619C402.743 23.7263 402.298 23.4589 401.823 23.3599C401.347 23.2411 400.743 23.1817 400.011 23.1817H393.001V28.9441H399.536C400.07 28.9441 400.536 28.9144 400.932 28.855C401.347 28.7758 401.753 28.6075 402.149 28.3501V33.6075C401.753 33.3501 401.347 33.1917 400.932 33.1323C400.536 33.0531 400.09 33.0135 399.595 33.0135H393.001V38.865H400.961C401.694 38.865 402.328 38.8155 402.862 38.7165C403.397 38.5977 403.842 38.3303 404.199 37.9145L403.1 42.9343L387.535 42.9046Z" fill="#9B9795"/>
<path d="M97.1031 72.8058C95.5849 72.8058 94.1856 72.4428 92.905 71.7167C91.6245 70.9775 90.608 69.9873 89.8555 68.7464C89.1162 67.4923 88.7466 66.1325 88.7466 64.6672C88.7466 63.1886 89.1228 61.8289 89.8753 60.5879C90.641 59.347 91.6707 58.3635 92.9644 57.6374C94.2582 56.8981 95.6707 56.5285 97.2021 56.5285C98.0734 56.5285 98.8523 56.6275 99.5387 56.8255C100.225 57.0235 100.898 57.3272 101.559 57.7364V61.5186C101.506 61.4526 101.281 61.2018 100.885 60.7662C100.502 60.3173 99.981 59.9543 99.3209 59.677C98.6608 59.3866 97.9216 59.2414 97.1031 59.2414C96.0602 59.2414 95.1229 59.4922 94.2912 59.9939C93.4595 60.4823 92.806 61.1424 92.3308 61.9741C91.8555 62.7926 91.6179 63.6903 91.6179 64.6672C91.6179 65.6573 91.8621 66.5748 92.3506 67.4197C92.839 68.2646 93.5057 68.9378 94.3506 69.4395C95.2087 69.9279 96.1592 70.1524 97.2021 70.1128C98.0074 70.0732 98.6872 69.9411 99.2417 69.7167C99.8094 69.4791 100.245 69.2283 100.549 68.9642C100.865 68.687 101.202 68.3372 101.559 67.9147V71.6573C101.017 72.0138 100.357 72.2976 99.5783 72.5088C98.8127 72.7068 97.9876 72.8058 97.1031 72.8058Z" fill="#9B9795"/>
<path d="M113.324 72.8455C111.819 72.8455 110.446 72.4824 109.205 71.7563C107.964 71.0171 106.981 70.0269 106.255 68.786C105.542 67.5319 105.185 66.1589 105.185 64.6672C105.185 63.1886 105.542 61.8289 106.255 60.5879C106.981 59.3338 107.964 58.3437 109.205 57.6176C110.446 56.8783 111.819 56.5087 113.324 56.5087C114.789 56.5087 116.143 56.8783 117.384 57.6176C118.624 58.3437 119.608 59.3338 120.334 60.5879C121.073 61.8421 121.443 63.2018 121.443 64.6672C121.443 66.1457 121.073 67.5121 120.334 68.7662C119.608 70.0204 118.624 71.0171 117.384 71.7563C116.143 72.4824 114.789 72.8455 113.324 72.8455ZM113.324 70.1524C114.327 70.1524 115.232 69.9081 116.037 69.4197C116.842 68.918 117.469 68.2514 117.918 67.4197C118.38 66.5748 118.611 65.6573 118.611 64.6672C118.611 63.6771 118.38 62.7662 117.918 61.9345C117.469 61.0896 116.842 60.4229 116.037 59.9345C115.232 59.446 114.327 59.2018 113.324 59.2018C112.308 59.2018 111.397 59.446 110.591 59.9345C109.786 60.4229 109.159 61.083 108.71 61.9147C108.261 62.7464 108.037 63.6639 108.037 64.6672C108.037 65.6705 108.261 66.5946 108.71 67.4395C109.159 68.2712 109.786 68.9312 110.591 69.4197C111.397 69.9081 112.308 70.1524 113.324 70.1524Z" fill="#9B9795"/>
<path d="M130.864 72.8256C129.834 72.8256 128.903 72.6012 128.071 72.1524C127.253 71.6903 126.606 71.0567 126.131 70.2514C125.669 69.4461 125.438 68.5418 125.438 67.5385V58.8453C125.411 58.0269 125.147 57.3338 124.646 56.7661H129.081C128.58 57.3338 128.316 58.0269 128.289 58.8453V67.6573C128.289 68.3702 128.533 68.9642 129.022 69.4395C129.524 69.9015 130.151 70.1326 130.903 70.1326H131.319C132.071 70.1326 132.692 69.9015 133.18 69.4395C133.682 68.9642 133.933 68.3702 133.933 67.6573V58.8453C133.906 58.0401 133.642 57.347 133.141 56.7661H137.557C137.055 57.347 136.791 58.0401 136.765 58.8453V67.5385C136.765 68.555 136.527 69.4659 136.052 70.2712C135.59 71.0633 134.943 71.6903 134.111 72.1524C133.293 72.6012 132.368 72.8256 131.339 72.8256H130.864Z" fill="#9B9795"/>
<path d="M141.297 72.6078C141.561 72.2778 141.753 71.9478 141.872 71.6177C142.004 71.2745 142.076 70.9114 142.089 70.5286V58.7859C141.944 57.8354 141.68 57.1622 141.297 56.7661H145.357C145.238 56.9509 145.178 57.1424 145.178 57.3404C145.178 57.4988 145.231 57.7034 145.337 57.9543L150.921 66.6276V58.8453C150.895 58.0929 150.631 57.3998 150.129 56.7661H154.565C154.063 57.3998 153.799 58.0929 153.773 58.8453V70.5682C153.786 70.9642 153.852 71.3207 153.971 71.6375C154.103 71.9544 154.301 72.2778 154.565 72.6078H150.446C150.67 72.3834 150.782 72.093 150.782 71.7365C150.782 71.5649 150.743 71.3801 150.664 71.1821L144.941 62.3899V70.5286C144.954 70.9114 145.02 71.2745 145.139 71.6177C145.271 71.9478 145.469 72.2778 145.733 72.6078H141.297Z" fill="#9B9795"/>
<path d="M162.155 72.6078C162.432 72.3042 162.63 71.961 162.749 71.5781C162.868 71.1821 162.934 70.8322 162.947 70.5286V59.4592H160.333C159.911 59.4592 159.482 59.5054 159.046 59.5978C158.624 59.6902 158.287 59.8619 158.036 60.1127L158.848 56.7661H169.898L170.69 60.1127C170.426 59.8619 170.083 59.6902 169.66 59.5978C169.238 59.5054 168.822 59.4592 168.413 59.4592H165.779V70.5286C165.792 70.8322 165.858 71.1821 165.977 71.5781C166.109 71.961 166.314 72.3042 166.591 72.6078H162.155Z" fill="#9B9795"/>
<path d="M178 56.7661C177.921 56.9773 177.881 57.215 177.881 57.479C177.881 57.9278 177.967 58.3833 178.139 58.8453L180.218 63.281L182.297 58.8255C182.456 58.3503 182.535 57.9014 182.535 57.479C182.535 57.215 182.495 56.9773 182.416 56.7661H187.089C186.693 57.0434 186.337 57.3668 186.02 57.7364C185.716 58.1061 185.479 58.4559 185.307 58.7859L181.644 66.5286V70.5286C181.657 70.8322 181.723 71.1821 181.842 71.5781C181.96 71.961 182.158 72.3042 182.436 72.6078H178.02C178.297 72.3042 178.495 71.961 178.614 71.5781C178.733 71.1821 178.799 70.8322 178.812 70.5286V66.5286L175.109 58.8057C174.594 57.9212 173.993 57.2414 173.307 56.7661H178Z" fill="#9B9795"/>
<path d="M197.944 72.6078C198.222 72.3042 198.42 71.961 198.539 71.5781C198.657 71.1821 198.723 70.8322 198.737 70.5286V58.8453C198.723 58.5417 198.657 58.1985 198.539 57.8156C198.42 57.4196 198.222 57.0698 197.944 56.7661H204.36C205.39 56.7661 206.321 56.9773 207.152 57.3998C207.997 57.8222 208.657 58.4097 209.133 59.1622C209.608 59.9015 209.846 60.7265 209.846 61.6374V61.6969C209.846 62.9642 209.516 64.0533 208.855 64.9642C208.209 65.8751 207.159 66.5352 205.707 66.9444L201.588 68.1721V70.5286C201.601 70.8322 201.667 71.1821 201.786 71.5781C201.905 71.961 202.103 72.3042 202.38 72.6078H197.944ZM204.776 64.4493C205.529 64.2645 206.083 63.9411 206.44 63.479C206.809 63.0038 206.994 62.4625 206.994 61.8553V61.7563C206.994 61.0962 206.776 60.5483 206.341 60.1127C205.905 59.677 205.298 59.4592 204.519 59.4592H201.588V65.2612L204.776 64.4493Z" fill="#9B9795"/>
<path d="M219.422 72.8256C218.392 72.8256 217.461 72.6012 216.629 72.1524C215.811 71.6903 215.164 71.0567 214.689 70.2514C214.227 69.4461 213.996 68.5418 213.996 67.5385V58.8453C213.969 58.0269 213.705 57.3338 213.204 56.7661H217.639C217.138 57.3338 216.874 58.0269 216.847 58.8453V67.6573C216.847 68.3702 217.092 68.9642 217.58 69.4395C218.082 69.9015 218.709 70.1326 219.461 70.1326H219.877C220.63 70.1326 221.25 69.9015 221.738 69.4395C222.24 68.9642 222.491 68.3702 222.491 67.6573V58.8453C222.465 58.0401 222.2 57.347 221.699 56.7661H226.115C225.613 57.347 225.349 58.0401 225.323 58.8453V67.5385C225.323 68.555 225.085 69.4659 224.61 70.2712C224.148 71.0633 223.501 71.6903 222.669 72.1524C221.851 72.6012 220.927 72.8256 219.897 72.8256H219.422Z" fill="#9B9795"/>
<path d="M229.744 72.6078C230.021 72.3042 230.219 71.961 230.338 71.5781C230.457 71.1821 230.523 70.8322 230.536 70.5286V58.8453C230.523 58.5417 230.457 58.1985 230.338 57.8156C230.219 57.4196 230.021 57.0698 229.744 56.7661H236.259C237.883 56.7661 239.183 57.1424 240.16 57.8948C241.15 58.6473 241.645 59.6902 241.645 61.0236V61.1622C241.619 62.3371 241.117 63.2942 240.14 64.0335C240.945 64.3767 241.533 64.8784 241.902 65.5385C242.285 66.1853 242.477 66.885 242.477 67.6375V67.8553C242.477 68.7662 242.246 69.5847 241.784 70.3108C241.322 71.0369 240.668 71.6045 239.823 72.0138C238.978 72.4098 238.015 72.6078 236.932 72.6078H229.744ZM236.219 63.3998C237.935 62.951 238.793 62.2249 238.793 61.2216V61.1622C238.793 60.6341 238.628 60.2183 238.298 59.9147C237.968 59.611 237.381 59.4592 236.536 59.4592H233.387V64.1127L236.219 63.3998ZM236.635 69.9147C237.744 69.9147 238.516 69.7035 238.952 69.2811C239.401 68.8586 239.625 68.3306 239.625 67.6969V67.4989C239.625 66.984 239.407 66.5484 238.972 66.1919C238.549 65.8355 237.988 65.6573 237.289 65.6573C236.998 65.6573 236.675 65.6969 236.318 65.7761L233.387 66.6276V69.9147H236.635Z" fill="#9B9795"/>
<path d="M245.83 72.6078C246.107 72.3042 246.305 71.961 246.424 71.5781C246.543 71.1821 246.609 70.8322 246.622 70.5286V58.8453C246.609 58.5417 246.543 58.1985 246.424 57.8156C246.305 57.4196 246.107 57.0698 245.83 56.7661H250.266C249.988 57.0698 249.79 57.4196 249.672 57.8156C249.553 58.1985 249.487 58.5417 249.474 58.8453V69.9147H254.899C255.322 69.9147 255.678 69.8751 255.969 69.7959C256.272 69.7167 256.589 69.5121 256.919 69.1821L256.305 72.6078H245.83Z" fill="#9B9795"/>
<path d="M260.413 72.6078C260.69 72.3042 260.888 71.961 261.007 71.5781C261.139 71.1821 261.212 70.8322 261.225 70.5286V58.8453C261.212 58.5417 261.139 58.1985 261.007 57.8156C260.888 57.4196 260.69 57.0698 260.413 56.7661H264.849C264.571 57.0698 264.373 57.4196 264.255 57.8156C264.136 58.1985 264.07 58.5417 264.057 58.8453V70.5286C264.07 70.8322 264.136 71.1821 264.255 71.5781C264.373 71.961 264.571 72.3042 264.849 72.6078H260.413Z" fill="#9B9795"/>
<path d="M276.617 72.8058C275.099 72.8058 273.7 72.4428 272.419 71.7167C271.139 70.9775 270.122 69.9873 269.37 68.7464C268.63 67.4923 268.261 66.1325 268.261 64.6672C268.261 63.1886 268.637 61.8289 269.389 60.5879C270.155 59.347 271.185 58.3635 272.478 57.6374C273.772 56.8981 275.185 56.5285 276.716 56.5285C277.587 56.5285 278.366 56.6275 279.053 56.8255C279.739 57.0235 280.412 57.3272 281.073 57.7364V61.5186C281.02 61.4526 280.795 61.2018 280.399 60.7662C280.016 60.3173 279.495 59.9543 278.835 59.677C278.175 59.3866 277.436 59.2414 276.617 59.2414C275.574 59.2414 274.637 59.4922 273.805 59.9939C272.973 60.4823 272.32 61.1424 271.845 61.9741C271.37 62.7926 271.132 63.6903 271.132 64.6672C271.132 65.6573 271.376 66.5748 271.865 67.4197C272.353 68.2646 273.02 68.9378 273.865 69.4395C274.723 69.9279 275.673 70.1524 276.716 70.1128C277.521 70.0732 278.201 69.9411 278.756 69.7167C279.323 69.4791 279.759 69.2283 280.063 68.9642C280.379 68.687 280.716 68.3372 281.073 67.9147V71.6573C280.531 72.0138 279.871 72.2976 279.092 72.5088C278.327 72.7068 277.502 72.8058 276.617 72.8058Z" fill="#9B9795"/>
<path d="M292.808 72.6078C292.993 72.3966 293.138 72.1062 293.244 71.7365C293.363 71.3537 293.449 70.9973 293.501 70.6672V58.7067C293.449 58.3767 293.363 58.0269 293.244 57.6572C293.138 57.2744 292.993 56.9773 292.808 56.7661H298.511C299.99 56.7661 301.31 57.1028 302.472 57.776C303.647 58.4361 304.558 59.3536 305.204 60.5285C305.864 61.7035 306.194 63.0236 306.194 64.489V64.885C306.194 66.3504 305.864 67.6705 305.204 68.8454C304.558 70.0204 303.647 70.9445 302.472 71.6177C301.31 72.2778 299.99 72.6078 298.511 72.6078H292.808ZM298.373 69.9147C299.944 69.9147 301.165 69.4659 302.036 68.5682C302.907 67.6705 303.343 66.4362 303.343 64.8652V64.5088C303.343 62.9378 302.907 61.7035 302.036 60.8058C301.165 59.9081 299.944 59.4592 298.373 59.4592H296.353V69.9147H298.373Z" fill="#9B9795"/>
<path d="M309.325 72.6078C309.8 72.0798 310.071 71.4659 310.137 70.7662V58.9048C310.11 58.0599 309.84 57.347 309.325 56.7661H319.087L319.741 60.1127C319.464 59.8223 319.167 59.644 318.85 59.578C318.533 59.4988 318.13 59.4592 317.642 59.4592H312.969V63.3008H317.325C317.681 63.3008 317.992 63.281 318.256 63.2414C318.533 63.1886 318.804 63.0764 319.068 62.9048V66.4098C318.804 66.2381 318.533 66.1325 318.256 66.0929C317.992 66.0401 317.695 66.0137 317.365 66.0137H312.969V69.9147H318.275C318.764 69.9147 319.186 69.8817 319.543 69.8157C319.899 69.7365 320.196 69.5583 320.434 69.2811L319.701 72.6276L309.325 72.6078Z" fill="#9B9795"/>
<path d="M323.981 72.6078C324.219 72.357 324.397 72.0336 324.516 71.6375C324.635 71.2415 324.721 70.8718 324.774 70.5286V58.8453C324.721 58.5021 324.635 58.1325 324.516 57.7364C324.397 57.3404 324.219 57.0169 323.981 56.7661H333.625L334.298 60.0335C334.008 59.7694 333.731 59.611 333.467 59.5582C333.203 59.4922 332.846 59.4592 332.397 59.4592H327.605V63.3206H331.566C331.922 63.3206 332.239 63.3008 332.516 63.2612C332.807 63.2084 333.084 63.0962 333.348 62.9246V66.4098C333.084 66.2381 332.813 66.1325 332.536 66.0929C332.259 66.0401 331.949 66.0137 331.605 66.0137H327.605V70.5286C327.658 70.8718 327.744 71.2415 327.863 71.6375C327.995 72.0336 328.18 72.357 328.417 72.6078H323.981Z" fill="#9B9795"/>
<path d="M337.562 72.6078C338.037 72.0798 338.307 71.4659 338.373 70.7662V58.9048C338.347 58.0599 338.076 57.347 337.562 56.7661H347.324L347.977 60.1127C347.7 59.8223 347.403 59.644 347.086 59.578C346.77 59.4988 346.367 59.4592 345.878 59.4592H341.205V63.3008H345.562C345.918 63.3008 346.228 63.281 346.492 63.2414C346.77 63.1886 347.04 63.0764 347.304 62.9048V66.4098C347.04 66.2381 346.77 66.1325 346.492 66.0929C346.228 66.0401 345.931 66.0137 345.601 66.0137H341.205V69.9147H346.512C347.001 69.9147 347.423 69.8817 347.779 69.8157C348.136 69.7365 348.433 69.5583 348.671 69.2811L347.938 72.6276L337.562 72.6078Z" fill="#9B9795"/>
<path d="M352.337 72.6078C352.601 72.2778 352.792 71.9478 352.911 71.6177C353.043 71.2745 353.116 70.9114 353.129 70.5286V58.7859C352.984 57.8354 352.72 57.1622 352.337 56.7661H356.396C356.277 56.9509 356.218 57.1424 356.218 57.3404C356.218 57.4988 356.271 57.7034 356.376 57.9543L361.961 66.6276V58.8453C361.934 58.0929 361.67 57.3998 361.169 56.7661H365.604C365.103 57.3998 364.839 58.0929 364.812 58.8453V70.5682C364.825 70.9642 364.891 71.3207 365.01 71.6375C365.142 71.9544 365.34 72.2778 365.604 72.6078H361.485C361.71 72.3834 361.822 72.093 361.822 71.7365C361.822 71.5649 361.782 71.3801 361.703 71.1821L355.98 62.3899V70.5286C355.994 70.9114 356.06 71.2745 356.178 71.6177C356.31 71.9478 356.508 72.2778 356.773 72.6078H352.337Z" fill="#9B9795"/>
<path d="M369.61 72.6078C369.809 72.4098 369.954 72.1458 370.046 71.8157C370.152 71.4725 370.244 71.0897 370.323 70.6672V58.7067C370.244 58.2843 370.152 57.908 370.046 57.578C369.954 57.2348 369.809 56.9641 369.61 56.7661H375.314C376.792 56.7661 378.112 57.1028 379.274 57.776C380.449 58.4361 381.36 59.3536 382.007 60.5285C382.667 61.7035 382.997 63.0236 382.997 64.489V64.885C382.997 66.3504 382.667 67.6705 382.007 68.8454C381.36 70.0204 380.449 70.9445 379.274 71.6177C378.112 72.2778 376.792 72.6078 375.314 72.6078H369.61ZM375.175 69.9147C376.746 69.9147 377.967 69.4659 378.838 68.5682C379.71 67.6705 380.145 66.4362 380.145 64.8652V64.5088C380.145 62.9378 379.71 61.7035 378.838 60.8058C377.967 59.9081 376.746 59.4592 375.175 59.4592H373.155V69.9147H375.175Z" fill="#9B9795"/>
<path d="M386.201 72.6078C386.677 72.0798 386.947 71.4659 387.013 70.7662V58.9048C386.987 58.0599 386.716 57.347 386.201 56.7661H395.964L396.617 60.1127C396.34 59.8223 396.043 59.644 395.726 59.578C395.409 59.4988 395.007 59.4592 394.518 59.4592H389.845V63.3008H394.201C394.558 63.3008 394.868 63.281 395.132 63.2414C395.409 63.1886 395.68 63.0764 395.944 62.9048V66.4098C395.68 66.2381 395.409 66.1325 395.132 66.0929C394.868 66.0401 394.571 66.0137 394.241 66.0137H389.845V69.9147H395.152C395.64 69.9147 396.063 69.8817 396.419 69.8157C396.776 69.7365 397.073 69.5583 397.31 69.2811L396.578 72.6276L386.201 72.6078Z" fill="#9B9795"/>
<path d="M400.996 72.6078C401.511 72.027 401.782 71.3339 401.808 70.5286V58.8453C401.795 58.5681 401.716 58.2183 401.571 57.7958C401.425 57.3734 401.234 57.0302 400.996 56.7661H407.432C408.462 56.7661 409.392 56.9773 410.224 57.3998C411.056 57.8222 411.709 58.4097 412.185 59.1622C412.66 59.9015 412.897 60.7265 412.897 61.6374V61.6969C412.897 64.0599 411.868 65.6903 409.808 66.588L411.293 69.2613C411.703 70.0005 412.125 70.6738 412.561 71.2811C412.996 71.8751 413.478 72.3174 414.006 72.6078H409.115C409.247 72.4758 409.313 72.2778 409.313 72.0138C409.313 71.7233 409.247 71.4329 409.115 71.1425L407.115 67.4791L404.64 68.1721V70.5286C404.653 70.9114 404.719 71.2745 404.838 71.6177C404.957 71.9478 405.155 72.2778 405.432 72.6078H400.996ZM407.828 64.4493C408.567 64.2777 409.122 63.9807 409.492 63.5583C409.874 63.1226 410.066 62.6012 410.066 61.9939V61.7563C410.066 61.0962 409.848 60.5483 409.412 60.1127C408.977 59.677 408.369 59.4592 407.591 59.4592H404.64V65.2612L407.828 64.4493Z" fill="#9B9795"/>
<path d="M421.842 72.9049C419.954 72.9049 418.264 72.4692 416.772 71.5979V67.6969C417.234 68.5154 417.881 69.1359 418.713 69.5583C419.558 69.9807 420.521 70.1986 421.604 70.2118C422.462 70.2118 423.241 70.0732 423.941 69.7959C424.653 69.5187 425.036 69.1094 425.089 68.5682C425.142 68.1325 425.03 67.7563 424.752 67.4395C424.475 67.1226 424.112 66.852 423.663 66.6276C423.228 66.4032 422.614 66.1457 421.822 65.8553C420.766 65.4593 419.894 65.083 419.208 64.7266C418.535 64.3701 417.954 63.8817 417.465 63.2612C416.977 62.6408 416.726 61.8619 416.713 60.9246C416.713 60.0797 416.95 59.3206 417.426 58.6473C417.914 57.9608 418.594 57.4262 419.465 57.0434C420.337 56.6605 421.34 56.4691 422.475 56.4691C424.284 56.4691 425.782 56.8717 426.97 57.677V61.3998C426.455 60.6737 425.776 60.1259 424.931 59.7562C424.086 59.3734 423.241 59.182 422.396 59.182C421.604 59.182 420.944 59.3206 420.416 59.5978C419.888 59.8751 419.624 60.2909 419.624 60.8454C419.624 61.2414 419.769 61.5846 420.059 61.8751C420.35 62.1655 420.713 62.4163 421.148 62.6276C421.584 62.8256 422.185 63.0632 422.95 63.3404C424.02 63.7233 424.884 64.0863 425.545 64.4295C426.218 64.7728 426.792 65.248 427.267 65.8553C427.756 66.4626 428 67.2216 428 68.1325C428 69.083 427.729 69.9213 427.188 70.6474C426.66 71.3735 425.927 71.9346 424.99 72.3306C424.066 72.7134 423.016 72.9049 421.842 72.9049Z" fill="#9B9795"/>
<path fill-rule="evenodd" clip-rule="evenodd" d="M59.9699 11.6705C44.6183 3.68766 26.3393 3.68766 10.9877 11.6705C9.97065 12.1994 9.20116 13.1055 8.84403 14.1947L8.13495 16.3574C5.61775 24.0349 5.03326 32.3155 6.40791 40.2885C8.5575 52.7561 14.2187 64.5053 22.6782 73.8954L32.523 84.8231C32.5604 84.8646 32.5985 84.9051 32.6371 84.9446V58.2493C32.6371 56.6799 33.9094 55.4076 35.4788 55.4076C37.0482 55.4076 38.3205 56.6799 38.3205 58.2493L38.3205 84.9446C38.3592 84.9051 38.3972 84.8646 38.4346 84.8231L48.2794 73.8954C56.7389 64.5053 62.4001 52.7561 64.5497 40.2885C65.9244 32.3155 65.3399 24.0349 62.8227 16.3574L62.1136 14.1947C61.7565 13.1055 60.987 12.1994 59.9699 11.6705ZM8.36564 6.62814C25.3609 -2.20938 45.5968 -2.20938 62.592 6.62814C64.9272 7.84246 66.6941 9.92298 67.5141 12.4241L68.2232 14.5868C71.033 23.1567 71.6809 32.3773 70.1505 41.2541C67.8208 54.7663 61.6881 67.5027 52.5019 77.6994L42.6571 88.6272C38.8195 92.8869 32.1381 92.8869 28.3005 88.6272L18.4557 77.6994C9.26947 67.5027 3.13685 54.7663 0.80717 41.2541C-0.72332 32.3773 -0.0753769 23.1567 2.73444 14.5868L3.44352 12.4241C4.26355 9.92298 6.0304 7.84246 8.36564 6.62814ZM47.5675 61.847C48.6128 63.0177 50.4091 63.1194 51.5798 62.0741C52.7505 61.0289 52.8522 59.2325 51.807 58.0618L38.0225 42.6231C36.6666 41.1046 34.291 41.1046 32.9351 42.6231L19.1506 58.0618C18.1054 59.2325 18.2071 61.0288 19.3778 62.0741C20.5484 63.1194 22.3448 63.0177 23.3901 61.847L35.4788 48.3076L47.5675 61.847ZM51.5427 47.8982C50.354 48.923 48.5597 48.79 47.5349 47.6013L35.4788 33.6163L23.4227 47.6013C22.398 48.79 20.6036 48.923 19.4149 47.8982C18.2262 46.8735 18.0933 45.0791 19.1181 43.8904L32.896 27.908C34.2564 26.33 36.7013 26.33 38.0616 27.908L51.8396 43.8904C52.8643 45.0791 52.7314 46.8735 51.5427 47.8982ZM47.6021 32.3313C48.6684 33.4829 50.4663 33.5521 51.6179 32.4858C52.7695 31.4195 52.8386 29.6216 51.7724 28.47L37.981 13.5753C36.6313 12.1177 34.3263 12.1177 32.9767 13.5753L19.1853 28.47C18.119 29.6216 18.1881 31.4195 19.3397 32.4858C20.4913 33.5521 22.2892 33.4829 23.3555 32.3313L35.4788 19.2382L47.6021 32.3313Z" fill="#9B9795"/>
</svg>
