<svg width="189" height="189" viewBox="0 0 189 189" fill="none" xmlns="http://www.w3.org/2000/svg">
<circle cx="94.5" cy="94.5" r="94.5" fill="#243359"/>
<path d="M113 128H74" stroke="#FCF9F2" stroke-width="6.1165" stroke-linecap="round"/>
<path d="M52 75L42 106" stroke="#FCF9F2" stroke-width="6.1165" stroke-linecap="round"/>
<path d="M146 75L135 44" stroke="#FCF9F2" stroke-width="6.1165" stroke-linecap="round"/>
<path d="M63 106L52 75" stroke="#FCF9F2" stroke-width="6.1165" stroke-linecap="round"/>
<path d="M135 44L125 75" stroke="#FCF9F2" stroke-width="6.1165" stroke-linecap="round"/>
<path d="M124 138H63" stroke="#FCF9F2" stroke-width="6.1165" stroke-linecap="round"/>
<path d="M135 44L52 75" stroke="#FCF9F2" stroke-width="6.1165" stroke-linecap="round"/>
<path d="M94 123L94 62" stroke="#FCF9F2" stroke-width="6.1165" stroke-linecap="round"/>
<path d="M74 109C74 117.837 64.3741 125 52.5 125C40.6259 125 31 117.837 31 109C31 109 40.6259 109 52.5 109C64.3741 109 74 109 74 109Z" fill="#FCF9F2"/>
<path d="M156 78C156 86.8366 146.374 94 134.5 94C122.626 94 113 86.8366 113 78C113 78 122.626 78 134.5 78C146.374 78 156 78 156 78Z" fill="#FCF9F2"/>
</svg>
