<svg width="43" height="56" viewBox="0 0 43 56" fill="none" xmlns="http://www.w3.org/2000/svg">
<path fill-rule="evenodd" clip-rule="evenodd" d="M36.3415 7.07228C27.0385 2.2347 15.9615 2.2347 6.65848 7.07228C6.04217 7.39277 5.57586 7.94186 5.35944 8.60194L4.92974 9.91252C3.40433 14.565 3.05013 19.5831 3.88316 24.4146C5.18581 31.97 8.61646 39.0899 13.7429 44.7803L19.7088 51.4024C19.7315 51.4276 19.7545 51.4521 19.7779 51.4761V35.2988C19.7779 34.3478 20.5489 33.5768 21.5 33.5768C22.4511 33.5768 23.222 34.3478 23.222 35.2988V51.4761C23.2455 51.4521 23.2685 51.4276 23.2912 51.4024L29.2571 44.7803C34.3835 39.0899 37.8142 31.97 39.1168 24.4146C39.9499 19.5831 39.5957 14.565 38.0703 9.91252L37.6406 8.60194C37.4241 7.94186 36.9578 7.39277 36.3415 7.07228ZM5.06954 4.01662C15.3686 -1.33887 27.6314 -1.33887 37.9305 4.01662C39.3456 4.75249 40.4163 6.01328 40.9132 7.52893L41.3429 8.83951C43.0457 14.0329 43.4383 19.6205 42.5109 24.9998C41.0991 33.1881 37.3827 40.9063 31.8159 47.0855L25.85 53.7077C23.5244 56.2891 19.4756 56.2891 17.15 53.7077L11.1841 47.0855C5.61725 40.9063 1.90092 33.1881 0.489142 24.9998C-0.438328 19.6205 -0.045678 14.0329 1.65706 8.83951L2.08676 7.52893C2.58369 6.01328 3.6544 4.75249 5.06954 4.01662ZM28.8257 37.479C29.4591 38.1884 30.5477 38.25 31.2572 37.6166C31.9666 36.9832 32.0282 35.8946 31.3948 35.1852L23.0414 25.8294C22.2198 24.9092 20.7802 24.9092 19.9585 25.8294L11.6052 35.1852C10.9718 35.8946 11.0334 36.9832 11.7428 37.6166C12.4523 38.25 13.5409 38.1884 14.1743 37.479L21.5 29.2742L28.8257 37.479ZM31.2346 29.0261C30.5143 29.6471 29.4269 29.5666 28.8059 28.8462L21.5 20.3713L14.194 28.8462C13.5731 29.5666 12.4857 29.6471 11.7654 29.0261C11.045 28.4051 10.9645 27.3178 11.5855 26.5974L19.9348 16.9121C20.7592 15.9559 22.2408 15.9559 23.0652 16.9121L31.4145 26.5974C32.0355 27.3178 31.955 28.4051 31.2346 29.0261ZM28.8467 19.5927C29.4928 20.2906 30.5824 20.3325 31.2802 19.6863C31.9781 19.0402 32.02 17.9506 31.3738 17.2528L23.0163 8.22663C22.1984 7.34331 20.8016 7.34331 19.9837 8.22663L11.6262 17.2528C10.98 17.9506 11.0219 19.0402 11.7198 19.6863C12.4176 20.3325 13.5072 20.2906 14.1533 19.5927L21.5 11.6583L28.8467 19.5927Z" fill="#243359"/>
</svg>
