<svg width="260" height="56" viewBox="0 0 260 56" fill="none" xmlns="http://www.w3.org/2000/svg">
<path d="M54.35 26C54.71 25.628 54.95 24.998 55.07 24.11V13.49C54.95 12.602 54.71 11.972 54.35 11.6H63.134L63.728 14.57C63.464 14.33 63.212 14.186 62.972 14.138C62.744 14.078 62.426 14.048 62.018 14.048H57.662V17.558H61.262C61.586 17.558 61.874 17.54 62.126 17.504C62.378 17.456 62.624 17.354 62.864 17.198V20.366C62.624 20.21 62.378 20.114 62.126 20.078C61.874 20.03 61.592 20.006 61.28 20.006H57.662V24.11C57.782 24.998 58.022 25.628 58.382 26H54.35Z" fill="#383533"/>
<path d="M66.9553 26C67.4233 25.472 67.6693 24.842 67.6933 24.11V13.49C67.6813 13.238 67.6093 12.92 67.4773 12.536C67.3453 12.152 67.1713 11.84 66.9553 11.6H72.8053C73.7413 11.6 74.5873 11.792 75.3433 12.176C76.0993 12.56 76.6933 13.094 77.1253 13.778C77.5573 14.45 77.7733 15.2 77.7733 16.028V16.082C77.7733 18.23 76.8373 19.712 74.9653 20.528L76.3153 22.958C76.6873 23.63 77.0713 24.242 77.4673 24.794C77.8633 25.334 78.3013 25.736 78.7813 26H74.3353C74.4553 25.88 74.5153 25.7 74.5153 25.46C74.5153 25.196 74.4553 24.932 74.3353 24.668L72.5173 21.338L70.2673 21.968V24.11C70.2793 24.458 70.3393 24.788 70.4473 25.1C70.5553 25.4 70.7353 25.7 70.9873 26H66.9553ZM73.1653 18.584C73.8373 18.428 74.3413 18.158 74.6773 17.774C75.0253 17.378 75.1993 16.904 75.1993 16.352V16.136C75.1993 15.536 75.0013 15.038 74.6053 14.642C74.2093 14.246 73.6573 14.048 72.9493 14.048H70.2673V19.322L73.1653 18.584Z" fill="#383533"/>
<path d="M81.5114 26C81.7634 25.724 81.9434 25.412 82.0514 25.064C82.1714 24.704 82.2374 24.386 82.2494 24.11V13.49C82.2374 13.214 82.1714 12.902 82.0514 12.554C81.9434 12.194 81.7634 11.876 81.5114 11.6H85.5434C85.2914 11.876 85.1114 12.194 85.0034 12.554C84.8954 12.902 84.8354 13.214 84.8234 13.49V24.11C84.8354 24.386 84.8954 24.704 85.0034 25.064C85.1114 25.412 85.2914 25.724 85.5434 26H81.5114Z" fill="#383533"/>
<path d="M89.1066 26C89.5386 25.52 89.7846 24.962 89.8446 24.326V13.544C89.8206 12.776 89.5746 12.128 89.1066 11.6H97.9806L98.5746 14.642C98.3226 14.378 98.0526 14.216 97.7646 14.156C97.4766 14.084 97.1106 14.048 96.6666 14.048H92.4186V17.54H96.3786C96.7026 17.54 96.9846 17.522 97.2246 17.486C97.4766 17.438 97.7226 17.336 97.9626 17.18V20.366C97.7226 20.21 97.4766 20.114 97.2246 20.078C96.9846 20.03 96.7146 20.006 96.4146 20.006H92.4186V23.552H97.2426C97.6866 23.552 98.0706 23.522 98.3946 23.462C98.7186 23.39 98.9886 23.228 99.2046 22.976L98.5386 26.018L89.1066 26Z" fill="#383533"/>
<path d="M102.537 26C102.777 25.7 102.951 25.4 103.059 25.1C103.179 24.788 103.245 24.458 103.257 24.11V13.436C103.125 12.572 102.885 11.96 102.537 11.6H106.227C106.119 11.768 106.065 11.942 106.065 12.122C106.065 12.266 106.113 12.452 106.209 12.68L111.285 20.564V13.49C111.261 12.806 111.021 12.176 110.565 11.6H114.597C114.141 12.176 113.901 12.806 113.877 13.49V24.146C113.889 24.506 113.949 24.83 114.057 25.118C114.177 25.406 114.357 25.7 114.597 26H110.853C111.057 25.796 111.159 25.532 111.159 25.208C111.159 25.052 111.123 24.884 111.051 24.704L105.849 16.712V24.11C105.861 24.458 105.921 24.788 106.029 25.1C106.149 25.4 106.329 25.7 106.569 26H102.537Z" fill="#383533"/>
<path d="M118.239 26C118.419 25.82 118.551 25.58 118.635 25.28C118.731 24.968 118.815 24.62 118.887 24.236V13.364C118.815 12.98 118.731 12.638 118.635 12.338C118.551 12.026 118.419 11.78 118.239 11.6H123.423C124.767 11.6 125.967 11.906 127.023 12.518C128.091 13.118 128.919 13.952 129.507 15.02C130.107 16.088 130.407 17.288 130.407 18.62V18.98C130.407 20.312 130.107 21.512 129.507 22.58C128.919 23.648 128.091 24.488 127.023 25.1C125.967 25.7 124.767 26 123.423 26H118.239ZM123.297 23.552C124.725 23.552 125.835 23.144 126.627 22.328C127.419 21.512 127.815 20.39 127.815 18.962V18.638C127.815 17.21 127.419 16.088 126.627 15.272C125.835 14.456 124.725 14.048 123.297 14.048H121.461V23.552H123.297Z" fill="#383533"/>
<path d="M137.94 26.27C136.224 26.27 134.688 25.874 133.332 25.082V21.536C133.752 22.28 134.34 22.844 135.096 23.228C135.864 23.612 136.74 23.81 137.724 23.822C138.504 23.822 139.212 23.696 139.848 23.444C140.496 23.192 140.844 22.82 140.892 22.328C140.94 21.932 140.838 21.59 140.586 21.302C140.334 21.014 140.004 20.768 139.596 20.564C139.2 20.36 138.642 20.126 137.922 19.862C136.962 19.502 136.17 19.16 135.546 18.836C134.934 18.512 134.406 18.068 133.962 17.504C133.518 16.94 133.29 16.232 133.278 15.38C133.278 14.612 133.494 13.922 133.926 13.31C134.37 12.686 134.988 12.2 135.78 11.852C136.572 11.504 137.484 11.33 138.516 11.33C140.16 11.33 141.522 11.696 142.602 12.428V15.812C142.134 15.152 141.516 14.654 140.748 14.318C139.98 13.97 139.212 13.796 138.444 13.796C137.724 13.796 137.124 13.922 136.644 14.174C136.164 14.426 135.924 14.804 135.924 15.308C135.924 15.668 136.056 15.98 136.32 16.244C136.584 16.508 136.914 16.736 137.31 16.928C137.706 17.108 138.252 17.324 138.948 17.576C139.92 17.924 140.706 18.254 141.306 18.566C141.918 18.878 142.44 19.31 142.872 19.862C143.316 20.414 143.538 21.104 143.538 21.932C143.538 22.796 143.292 23.558 142.8 24.218C142.32 24.878 141.654 25.388 140.802 25.748C139.962 26.096 139.008 26.27 137.94 26.27Z" fill="#383533"/>
<path d="M161.054 26.216C159.686 26.216 158.438 25.886 157.31 25.226C156.182 24.554 155.288 23.654 154.628 22.526C153.98 21.386 153.656 20.138 153.656 18.782C153.656 17.438 153.98 16.202 154.628 15.074C155.288 13.934 156.182 13.034 157.31 12.374C158.438 11.702 159.686 11.366 161.054 11.366C162.386 11.366 163.616 11.702 164.744 12.374C165.872 13.034 166.766 13.934 167.426 15.074C168.098 16.214 168.434 17.45 168.434 18.782C168.434 20.126 168.098 21.368 167.426 22.508C166.766 23.648 165.872 24.554 164.744 25.226C163.616 25.886 162.386 26.216 161.054 26.216ZM161.054 23.768C161.966 23.768 162.788 23.546 163.52 23.102C164.252 22.646 164.822 22.04 165.23 21.284C165.65 20.516 165.86 19.682 165.86 18.782C165.86 17.882 165.65 17.054 165.23 16.298C164.822 15.53 164.252 14.924 163.52 14.48C162.788 14.036 161.966 13.814 161.054 13.814C160.13 13.814 159.302 14.036 158.57 14.48C157.838 14.924 157.268 15.524 156.86 16.28C156.452 17.036 156.248 17.87 156.248 18.782C156.248 19.694 156.452 20.534 156.86 21.302C157.268 22.058 157.838 22.658 158.57 23.102C159.302 23.546 160.13 23.768 161.054 23.768Z" fill="#383533"/>
<path d="M171.448 26C171.664 25.772 171.826 25.478 171.934 25.118C172.042 24.758 172.12 24.422 172.168 24.11V13.49C172.12 13.178 172.042 12.842 171.934 12.482C171.826 12.122 171.664 11.828 171.448 11.6H180.214L180.826 14.57C180.562 14.33 180.31 14.186 180.07 14.138C179.83 14.078 179.506 14.048 179.098 14.048H174.742V17.558H178.342C178.666 17.558 178.954 17.54 179.206 17.504C179.47 17.456 179.722 17.354 179.962 17.198V20.366C179.722 20.21 179.476 20.114 179.224 20.078C178.972 20.03 178.69 20.006 178.378 20.006H174.742V24.11C174.79 24.422 174.868 24.758 174.976 25.118C175.096 25.478 175.264 25.772 175.48 26H171.448Z" fill="#383533"/>
<path d="M190.807 26C191.059 25.724 191.239 25.412 191.347 25.064C191.455 24.704 191.515 24.386 191.527 24.11V13.49C191.515 13.214 191.455 12.902 191.347 12.554C191.239 12.194 191.059 11.876 190.807 11.6H194.839C194.587 11.876 194.407 12.194 194.299 12.554C194.191 12.902 194.131 13.214 194.119 13.49V23.552H199.051C199.435 23.552 199.759 23.516 200.023 23.444C200.299 23.372 200.587 23.186 200.887 22.886L200.329 26H190.807Z" fill="#383533"/>
<path d="M203.132 26C203.612 25.544 204.002 24.944 204.302 24.2L207.902 13.076C207.95 12.788 207.974 12.59 207.974 12.482C207.974 12.11 207.908 11.816 207.776 11.6H212.06C211.928 11.816 211.862 12.11 211.862 12.482C211.862 12.722 211.892 12.956 211.952 13.184L215.606 24.362C215.858 24.986 216.224 25.532 216.704 26H212.762C212.882 25.844 212.942 25.55 212.942 25.118C212.942 24.842 212.918 24.608 212.87 24.416L212.348 22.76L207.488 22.742L206.93 24.47C206.894 24.662 206.876 24.86 206.876 25.064C206.876 25.52 206.948 25.832 207.092 26H203.132ZM209.9 14.534L208.01 20.366H211.826L209.9 14.534Z" fill="#383533"/>
<path d="M219.251 26C219.491 25.7 219.665 25.4 219.773 25.1C219.893 24.788 219.959 24.458 219.971 24.11V13.436C219.839 12.572 219.599 11.96 219.251 11.6H222.941C222.833 11.768 222.779 11.942 222.779 12.122C222.779 12.266 222.827 12.452 222.923 12.68L227.999 20.564V13.49C227.975 12.806 227.735 12.176 227.279 11.6H231.311C230.855 12.176 230.615 12.806 230.591 13.49V24.146C230.603 24.506 230.663 24.83 230.771 25.118C230.891 25.406 231.071 25.7 231.311 26H227.567C227.771 25.796 227.873 25.532 227.873 25.208C227.873 25.052 227.837 24.884 227.765 24.704L222.563 16.712V24.11C222.575 24.458 222.635 24.788 222.743 25.1C222.863 25.4 223.043 25.7 223.283 26H219.251Z" fill="#383533"/>
<path d="M234.845 26C235.277 25.52 235.523 24.962 235.583 24.326V13.544C235.559 12.776 235.313 12.128 234.845 11.6H243.719L244.313 14.642C244.061 14.378 243.791 14.216 243.503 14.156C243.215 14.084 242.849 14.048 242.405 14.048H238.157V17.54H242.117C242.441 17.54 242.723 17.522 242.963 17.486C243.215 17.438 243.461 17.336 243.701 17.18V20.366C243.461 20.21 243.215 20.114 242.963 20.078C242.723 20.03 242.453 20.006 242.153 20.006H238.157V23.552H242.981C243.425 23.552 243.809 23.522 244.133 23.462C244.457 23.39 244.727 23.228 244.943 22.976L244.277 26.018L234.845 26Z" fill="#383533"/>
<path d="M58.844 44.12C57.924 44.12 57.076 43.9 56.3 43.46C55.524 43.012 54.908 42.412 54.452 41.66C54.004 40.9 53.78 40.076 53.78 39.188C53.78 38.292 54.008 37.468 54.464 36.716C54.928 35.964 55.552 35.368 56.336 34.928C57.12 34.48 57.976 34.256 58.904 34.256C59.432 34.256 59.904 34.316 60.32 34.436C60.736 34.556 61.144 34.74 61.544 34.988V37.28C61.512 37.24 61.376 37.088 61.136 36.824C60.904 36.552 60.588 36.332 60.188 36.164C59.788 35.988 59.34 35.9 58.844 35.9C58.212 35.9 57.644 36.052 57.14 36.356C56.636 36.652 56.24 37.052 55.952 37.556C55.664 38.052 55.52 38.596 55.52 39.188C55.52 39.788 55.668 40.344 55.964 40.856C56.26 41.368 56.664 41.776 57.176 42.08C57.696 42.376 58.272 42.512 58.904 42.488C59.392 42.464 59.804 42.384 60.14 42.248C60.484 42.104 60.748 41.952 60.932 41.792C61.124 41.624 61.328 41.412 61.544 41.156V43.424C61.216 43.64 60.816 43.812 60.344 43.94C59.88 44.06 59.38 44.12 58.844 44.12Z" fill="#383533"/>
<path d="M68.6739 44.144C67.7619 44.144 66.9299 43.924 66.1779 43.484C65.4259 43.036 64.8299 42.436 64.3899 41.684C63.9579 40.924 63.7419 40.092 63.7419 39.188C63.7419 38.292 63.9579 37.468 64.3899 36.716C64.8299 35.956 65.4259 35.356 66.1779 34.916C66.9299 34.468 67.7619 34.244 68.6739 34.244C69.5619 34.244 70.3819 34.468 71.1339 34.916C71.8859 35.356 72.4819 35.956 72.9219 36.716C73.3699 37.476 73.5939 38.3 73.5939 39.188C73.5939 40.084 73.3699 40.912 72.9219 41.672C72.4819 42.432 71.8859 43.036 71.1339 43.484C70.3819 43.924 69.5619 44.144 68.6739 44.144ZM68.6739 42.512C69.2819 42.512 69.8299 42.364 70.3179 42.068C70.8059 41.764 71.1859 41.36 71.4579 40.856C71.7379 40.344 71.8779 39.788 71.8779 39.188C71.8779 38.588 71.7379 38.036 71.4579 37.532C71.1859 37.02 70.8059 36.616 70.3179 36.32C69.8299 36.024 69.2819 35.876 68.6739 35.876C68.0579 35.876 67.5059 36.024 67.0179 36.32C66.5299 36.616 66.1499 37.016 65.8779 37.52C65.6059 38.024 65.4699 38.58 65.4699 39.188C65.4699 39.796 65.6059 40.356 65.8779 40.868C66.1499 41.372 66.5299 41.772 67.0179 42.068C67.5059 42.364 68.0579 42.512 68.6739 42.512Z" fill="#383533"/>
<path d="M79.3027 44.132C78.6787 44.132 78.1147 43.996 77.6107 43.724C77.1147 43.444 76.7227 43.06 76.4347 42.572C76.1547 42.084 76.0147 41.536 76.0147 40.928V35.66C75.9987 35.164 75.8387 34.744 75.5347 34.4H78.2227C77.9187 34.744 77.7587 35.164 77.7427 35.66V41C77.7427 41.432 77.8907 41.792 78.1867 42.08C78.4907 42.36 78.8707 42.5 79.3267 42.5H79.5787C80.0347 42.5 80.4107 42.36 80.7067 42.08C81.0107 41.792 81.1627 41.432 81.1627 41V35.66C81.1467 35.172 80.9867 34.752 80.6827 34.4H83.3587C83.0547 34.752 82.8947 35.172 82.8787 35.66V40.928C82.8787 41.544 82.7347 42.096 82.4467 42.584C82.1667 43.064 81.7747 43.444 81.2707 43.724C80.7747 43.996 80.2147 44.132 79.5907 44.132H79.3027Z" fill="#383533"/>
<path d="M85.6255 44C85.7855 43.8 85.9015 43.6 85.9735 43.4C86.0535 43.192 86.0975 42.972 86.1055 42.74V35.624C86.0175 35.048 85.8575 34.64 85.6255 34.4H88.0855C88.0135 34.512 87.9775 34.628 87.9775 34.748C87.9775 34.844 88.0095 34.968 88.0735 35.12L91.4575 40.376V35.66C91.4415 35.204 91.2815 34.784 90.9775 34.4H93.6655C93.3615 34.784 93.2015 35.204 93.1855 35.66V42.764C93.1935 43.004 93.2335 43.22 93.3055 43.412C93.3855 43.604 93.5055 43.8 93.6655 44H91.1695C91.3055 43.864 91.3735 43.688 91.3735 43.472C91.3735 43.368 91.3495 43.256 91.3015 43.136L87.8335 37.808V42.74C87.8415 42.972 87.8815 43.192 87.9535 43.4C88.0335 43.6 88.1535 43.8 88.3135 44H85.6255Z" fill="#383533"/>
<path d="M98.2652 44C98.4332 43.816 98.5532 43.608 98.6252 43.376C98.6972 43.136 98.7372 42.924 98.7452 42.74V36.032H97.1612C96.9052 36.032 96.6452 36.06 96.3812 36.116C96.1252 36.172 95.9212 36.276 95.7692 36.428L96.2612 34.4H102.957L103.437 36.428C103.277 36.276 103.069 36.172 102.813 36.116C102.557 36.06 102.305 36.032 102.057 36.032H100.461V42.74C100.469 42.924 100.509 43.136 100.581 43.376C100.661 43.608 100.785 43.816 100.953 44H98.2652Z" fill="#383533"/>
<path d="M107.867 34.4C107.819 34.528 107.795 34.672 107.795 34.832C107.795 35.104 107.847 35.38 107.951 35.66L109.211 38.348L110.471 35.648C110.567 35.36 110.615 35.088 110.615 34.832C110.615 34.672 110.591 34.528 110.543 34.4H113.375C113.135 34.568 112.919 34.764 112.727 34.988C112.543 35.212 112.399 35.424 112.295 35.624L110.075 40.316V42.74C110.083 42.924 110.123 43.136 110.195 43.376C110.267 43.608 110.387 43.816 110.555 44H107.879C108.047 43.816 108.167 43.608 108.239 43.376C108.311 43.136 108.351 42.924 108.359 42.74V40.316L106.115 35.636C105.803 35.1 105.439 34.688 105.023 34.4H107.867Z" fill="#383533"/>
<path d="M119.953 44C120.121 43.816 120.241 43.608 120.313 43.376C120.385 43.136 120.425 42.924 120.433 42.74V35.66C120.425 35.476 120.385 35.268 120.313 35.036C120.241 34.796 120.121 34.584 119.953 34.4H123.841C124.465 34.4 125.029 34.528 125.533 34.784C126.045 35.04 126.445 35.396 126.733 35.852C127.021 36.3 127.165 36.8 127.165 37.352V37.388C127.165 38.156 126.965 38.816 126.565 39.368C126.173 39.92 125.537 40.32 124.657 40.568L122.161 41.312V42.74C122.169 42.924 122.209 43.136 122.281 43.376C122.353 43.608 122.473 43.816 122.641 44H119.953ZM124.093 39.056C124.549 38.944 124.885 38.748 125.101 38.468C125.325 38.18 125.437 37.852 125.437 37.484V37.424C125.437 37.024 125.305 36.692 125.041 36.428C124.777 36.164 124.409 36.032 123.937 36.032H122.161V39.548L124.093 39.056Z" fill="#383533"/>
<path d="M132.968 44.132C132.344 44.132 131.78 43.996 131.276 43.724C130.78 43.444 130.388 43.06 130.1 42.572C129.82 42.084 129.68 41.536 129.68 40.928V35.66C129.664 35.164 129.504 34.744 129.2 34.4H131.888C131.584 34.744 131.424 35.164 131.408 35.66V41C131.408 41.432 131.556 41.792 131.852 42.08C132.156 42.36 132.536 42.5 132.992 42.5H133.244C133.7 42.5 134.076 42.36 134.372 42.08C134.676 41.792 134.828 41.432 134.828 41V35.66C134.812 35.172 134.652 34.752 134.348 34.4H137.024C136.72 34.752 136.56 35.172 136.544 35.66V40.928C136.544 41.544 136.4 42.096 136.112 42.584C135.832 43.064 135.44 43.444 134.936 43.724C134.44 43.996 133.88 44.132 133.256 44.132H132.968Z" fill="#383533"/>
<path d="M139.224 44C139.392 43.816 139.512 43.608 139.584 43.376C139.656 43.136 139.696 42.924 139.704 42.74V35.66C139.696 35.476 139.656 35.268 139.584 35.036C139.512 34.796 139.392 34.584 139.224 34.4H143.172C144.156 34.4 144.944 34.628 145.536 35.084C146.136 35.54 146.436 36.172 146.436 36.98V37.064C146.42 37.776 146.116 38.356 145.524 38.804C146.012 39.012 146.368 39.316 146.592 39.716C146.824 40.108 146.94 40.532 146.94 40.988V41.12C146.94 41.672 146.8 42.168 146.52 42.608C146.24 43.048 145.844 43.392 145.332 43.64C144.82 43.88 144.236 44 143.58 44H139.224ZM143.148 38.42C144.188 38.148 144.708 37.708 144.708 37.1V37.064C144.708 36.744 144.608 36.492 144.408 36.308C144.208 36.124 143.852 36.032 143.34 36.032H141.432V38.852L143.148 38.42ZM143.4 42.368C144.072 42.368 144.54 42.24 144.804 41.984C145.076 41.728 145.212 41.408 145.212 41.024V40.904C145.212 40.592 145.08 40.328 144.816 40.112C144.56 39.896 144.22 39.788 143.796 39.788C143.62 39.788 143.424 39.812 143.208 39.86L141.432 40.376V42.368H143.4Z" fill="#383533"/>
<path d="M148.972 44C149.14 43.816 149.26 43.608 149.332 43.376C149.404 43.136 149.444 42.924 149.452 42.74V35.66C149.444 35.476 149.404 35.268 149.332 35.036C149.26 34.796 149.14 34.584 148.972 34.4H151.66C151.492 34.584 151.372 34.796 151.3 35.036C151.228 35.268 151.188 35.476 151.18 35.66V42.368H154.468C154.724 42.368 154.94 42.344 155.116 42.296C155.3 42.248 155.492 42.124 155.692 41.924L155.32 44H148.972Z" fill="#383533"/>
<path d="M157.809 44C157.977 43.816 158.097 43.608 158.169 43.376C158.249 43.136 158.293 42.924 158.301 42.74V35.66C158.293 35.476 158.249 35.268 158.169 35.036C158.097 34.796 157.977 34.584 157.809 34.4H160.497C160.329 34.584 160.209 34.796 160.137 35.036C160.065 35.268 160.025 35.476 160.017 35.66V42.74C160.025 42.924 160.065 43.136 160.137 43.376C160.209 43.608 160.329 43.816 160.497 44H157.809Z" fill="#383533"/>
<path d="M167.629 44.12C166.709 44.12 165.861 43.9 165.085 43.46C164.309 43.012 163.693 42.412 163.237 41.66C162.789 40.9 162.565 40.076 162.565 39.188C162.565 38.292 162.793 37.468 163.249 36.716C163.713 35.964 164.337 35.368 165.121 34.928C165.905 34.48 166.761 34.256 167.689 34.256C168.217 34.256 168.689 34.316 169.105 34.436C169.521 34.556 169.929 34.74 170.329 34.988V37.28C170.297 37.24 170.161 37.088 169.921 36.824C169.689 36.552 169.373 36.332 168.973 36.164C168.573 35.988 168.125 35.9 167.629 35.9C166.997 35.9 166.429 36.052 165.925 36.356C165.421 36.652 165.025 37.052 164.737 37.556C164.449 38.052 164.305 38.596 164.305 39.188C164.305 39.788 164.453 40.344 164.749 40.856C165.045 41.368 165.449 41.776 165.961 42.08C166.481 42.376 167.057 42.512 167.689 42.488C168.177 42.464 168.589 42.384 168.925 42.248C169.269 42.104 169.533 41.952 169.717 41.792C169.909 41.624 170.113 41.412 170.329 41.156V43.424C170.001 43.64 169.601 43.812 169.129 43.94C168.665 44.06 168.165 44.12 167.629 44.12Z" fill="#383533"/>
<path d="M177.44 44C177.552 43.872 177.64 43.696 177.704 43.472C177.776 43.24 177.828 43.024 177.86 42.824V35.576C177.828 35.376 177.776 35.164 177.704 34.94C177.64 34.708 177.552 34.528 177.44 34.4H180.896C181.792 34.4 182.592 34.604 183.296 35.012C184.008 35.412 184.56 35.968 184.952 36.68C185.352 37.392 185.552 38.192 185.552 39.08V39.32C185.552 40.208 185.352 41.008 184.952 41.72C184.56 42.432 184.008 42.992 183.296 43.4C182.592 43.8 181.792 44 180.896 44H177.44ZM180.812 42.368C181.764 42.368 182.504 42.096 183.032 41.552C183.56 41.008 183.824 40.26 183.824 39.308V39.092C183.824 38.14 183.56 37.392 183.032 36.848C182.504 36.304 181.764 36.032 180.812 36.032H179.588V42.368H180.812Z" fill="#383533"/>
<path d="M187.45 44C187.738 43.68 187.902 43.308 187.942 42.884V35.696C187.926 35.184 187.762 34.752 187.45 34.4H193.366L193.762 36.428C193.594 36.252 193.414 36.144 193.222 36.104C193.03 36.056 192.786 36.032 192.49 36.032H189.658V38.36H192.298C192.514 38.36 192.702 38.348 192.862 38.324C193.03 38.292 193.193 38.224 193.354 38.12V40.244C193.193 40.14 193.03 40.076 192.862 40.052C192.702 40.02 192.521 40.004 192.322 40.004H189.658V42.368H192.874C193.17 42.368 193.426 42.348 193.642 42.308C193.858 42.26 194.038 42.152 194.182 41.984L193.738 44.012L187.45 44Z" fill="#383533"/>
<path d="M196.331 44C196.475 43.848 196.583 43.652 196.655 43.412C196.727 43.172 196.779 42.948 196.811 42.74V35.66C196.779 35.452 196.727 35.228 196.655 34.988C196.583 34.748 196.475 34.552 196.331 34.4H202.175L202.583 36.38C202.407 36.22 202.239 36.124 202.079 36.092C201.919 36.052 201.703 36.032 201.431 36.032H198.527V38.372H200.927C201.143 38.372 201.335 38.36 201.503 38.336C201.679 38.304 201.847 38.236 202.007 38.132V40.244C201.847 40.14 201.683 40.076 201.515 40.052C201.347 40.02 201.159 40.004 200.951 40.004H198.527V42.74C198.559 42.948 198.611 43.172 198.683 43.412C198.763 43.652 198.875 43.848 199.019 44H196.331Z" fill="#383533"/>
<path d="M204.561 44C204.849 43.68 205.013 43.308 205.053 42.884V35.696C205.037 35.184 204.873 34.752 204.561 34.4H210.477L210.873 36.428C210.705 36.252 210.525 36.144 210.333 36.104C210.141 36.056 209.897 36.032 209.601 36.032H206.769V38.36H209.409C209.625 38.36 209.813 38.348 209.973 38.324C210.141 38.292 210.305 38.224 210.465 38.12V40.244C210.305 40.14 210.141 40.076 209.973 40.052C209.813 40.02 209.633 40.004 209.433 40.004H206.769V42.368H209.985C210.281 42.368 210.537 42.348 210.753 42.308C210.969 42.26 211.149 42.152 211.293 41.984L210.849 44.012L204.561 44Z" fill="#383533"/>
<path d="M213.515 44C213.675 43.8 213.791 43.6 213.863 43.4C213.943 43.192 213.987 42.972 213.995 42.74V35.624C213.907 35.048 213.747 34.64 213.515 34.4H215.975C215.903 34.512 215.867 34.628 215.867 34.748C215.867 34.844 215.899 34.968 215.963 35.12L219.347 40.376V35.66C219.331 35.204 219.171 34.784 218.867 34.4H221.555C221.251 34.784 221.091 35.204 221.075 35.66V42.764C221.083 43.004 221.123 43.22 221.195 43.412C221.275 43.604 221.395 43.8 221.555 44H219.059C219.195 43.864 219.263 43.688 219.263 43.472C219.263 43.368 219.239 43.256 219.191 43.136L215.723 37.808V42.74C215.731 42.972 215.771 43.192 215.843 43.4C215.923 43.6 216.043 43.8 216.203 44H213.515Z" fill="#383533"/>
<path d="M223.982 44C224.102 43.88 224.19 43.72 224.246 43.52C224.31 43.312 224.366 43.08 224.414 42.824V35.576C224.366 35.32 224.31 35.092 224.246 34.892C224.19 34.684 224.102 34.52 223.982 34.4H227.438C228.334 34.4 229.134 34.604 229.838 35.012C230.55 35.412 231.102 35.968 231.494 36.68C231.894 37.392 232.094 38.192 232.094 39.08V39.32C232.094 40.208 231.894 41.008 231.494 41.72C231.102 42.432 230.55 42.992 229.838 43.4C229.134 43.8 228.334 44 227.438 44H223.982ZM227.354 42.368C228.306 42.368 229.046 42.096 229.574 41.552C230.102 41.008 230.366 40.26 230.366 39.308V39.092C230.366 38.14 230.102 37.392 229.574 36.848C229.046 36.304 228.306 36.032 227.354 36.032H226.13V42.368H227.354Z" fill="#383533"/>
<path d="M234.036 44C234.324 43.68 234.488 43.308 234.528 42.884V35.696C234.512 35.184 234.348 34.752 234.036 34.4H239.952L240.348 36.428C240.18 36.252 240 36.144 239.808 36.104C239.616 36.056 239.372 36.032 239.076 36.032H236.244V38.36H238.884C239.1 38.36 239.288 38.348 239.448 38.324C239.616 38.292 239.78 38.224 239.94 38.12V40.244C239.78 40.14 239.616 40.076 239.448 40.052C239.288 40.02 239.108 40.004 238.908 40.004H236.244V42.368H239.46C239.756 42.368 240.012 42.348 240.228 42.308C240.444 42.26 240.624 42.152 240.768 41.984L240.324 44.012L234.036 44Z" fill="#383533"/>
<path d="M243.002 44C243.314 43.648 243.478 43.228 243.494 42.74V35.66C243.486 35.492 243.438 35.28 243.35 35.024C243.262 34.768 243.146 34.56 243.002 34.4H246.902C247.526 34.4 248.09 34.528 248.594 34.784C249.098 35.04 249.494 35.396 249.782 35.852C250.07 36.3 250.214 36.8 250.214 37.352V37.388C250.214 38.82 249.59 39.808 248.342 40.352L249.242 41.972C249.49 42.42 249.746 42.828 250.01 43.196C250.274 43.556 250.566 43.824 250.886 44H247.922C248.002 43.92 248.042 43.8 248.042 43.64C248.042 43.464 248.002 43.288 247.922 43.112L246.71 40.892L245.21 41.312V42.74C245.218 42.972 245.258 43.192 245.33 43.4C245.402 43.6 245.522 43.8 245.69 44H243.002ZM247.142 39.056C247.59 38.952 247.926 38.772 248.15 38.516C248.382 38.252 248.498 37.936 248.498 37.568V37.424C248.498 37.024 248.366 36.692 248.102 36.428C247.838 36.164 247.47 36.032 246.998 36.032H245.21V39.548L247.142 39.056Z" fill="#383533"/>
<path d="M255.634 44.18C254.49 44.18 253.466 43.916 252.562 43.388V41.024C252.842 41.52 253.234 41.896 253.738 42.152C254.25 42.408 254.834 42.54 255.49 42.548C256.01 42.548 256.482 42.464 256.906 42.296C257.338 42.128 257.57 41.88 257.602 41.552C257.634 41.288 257.566 41.06 257.398 40.868C257.23 40.676 257.01 40.512 256.738 40.376C256.474 40.24 256.102 40.084 255.622 39.908C254.982 39.668 254.454 39.44 254.038 39.224C253.63 39.008 253.278 38.712 252.982 38.336C252.686 37.96 252.534 37.488 252.526 36.92C252.526 36.408 252.67 35.948 252.958 35.54C253.254 35.124 253.666 34.8 254.194 34.568C254.722 34.336 255.33 34.22 256.018 34.22C257.114 34.22 258.022 34.464 258.742 34.952V37.208C258.43 36.768 258.018 36.436 257.506 36.212C256.994 35.98 256.482 35.864 255.97 35.864C255.49 35.864 255.09 35.948 254.77 36.116C254.45 36.284 254.29 36.536 254.29 36.872C254.29 37.112 254.378 37.32 254.554 37.496C254.73 37.672 254.95 37.824 255.214 37.952C255.478 38.072 255.842 38.216 256.306 38.384C256.954 38.616 257.478 38.836 257.878 39.044C258.286 39.252 258.634 39.54 258.922 39.908C259.218 40.276 259.366 40.736 259.366 41.288C259.366 41.864 259.202 42.372 258.874 42.812C258.554 43.252 258.11 43.592 257.542 43.832C256.982 44.064 256.346 44.18 255.634 44.18Z" fill="#383533"/>
<path fill-rule="evenodd" clip-rule="evenodd" d="M36.3415 7.07228C27.0385 2.2347 15.9615 2.2347 6.65848 7.07228C6.04217 7.39277 5.57586 7.94186 5.35944 8.60194L4.92974 9.91252C3.40433 14.565 3.05013 19.5831 3.88316 24.4146C5.18581 31.97 8.61646 39.0899 13.7429 44.7803L19.7088 51.4024C19.7315 51.4276 19.7545 51.4521 19.7779 51.4761V35.2988C19.7779 34.3478 20.5489 33.5768 21.5 33.5768C22.4511 33.5768 23.222 34.3478 23.222 35.2988V51.4761C23.2455 51.4521 23.2685 51.4276 23.2912 51.4024L29.2571 44.7803C34.3835 39.0899 37.8142 31.97 39.1168 24.4146C39.9499 19.5831 39.5957 14.565 38.0703 9.91252L37.6406 8.60194C37.4241 7.94186 36.9578 7.39277 36.3415 7.07228ZM5.06954 4.01662C15.3686 -1.33887 27.6314 -1.33887 37.9305 4.01662C39.3456 4.75249 40.4163 6.01328 40.9132 7.52893L41.3429 8.83951C43.0457 14.0329 43.4383 19.6205 42.5109 24.9998C41.0991 33.1881 37.3827 40.9063 31.8159 47.0855L25.85 53.7077C23.5244 56.2891 19.4756 56.2891 17.15 53.7077L11.1841 47.0855C5.61725 40.9063 1.90092 33.1881 0.489142 24.9998C-0.438328 19.6205 -0.045678 14.0329 1.65706 8.83951L2.08676 7.52893C2.58369 6.01328 3.6544 4.75249 5.06954 4.01662ZM28.8257 37.479C29.4591 38.1884 30.5477 38.25 31.2572 37.6166C31.9666 36.9832 32.0282 35.8946 31.3948 35.1852L23.0414 25.8294C22.2198 24.9092 20.7802 24.9092 19.9585 25.8294L11.6052 35.1852C10.9718 35.8946 11.0334 36.9832 11.7428 37.6166C12.4523 38.25 13.5409 38.1884 14.1743 37.479L21.5 29.2742L28.8257 37.479ZM31.2346 29.0261C30.5143 29.6471 29.4269 29.5666 28.8059 28.8462L21.5 20.3713L14.194 28.8462C13.5731 29.5666 12.4857 29.6471 11.7654 29.0261C11.045 28.4051 10.9645 27.3178 11.5855 26.5974L19.9348 16.9121C20.7592 15.9559 22.2408 15.9559 23.0652 16.9121L31.4145 26.5974C32.0355 27.3178 31.955 28.4051 31.2346 29.0261ZM28.8467 19.5927C29.4928 20.2906 30.5824 20.3325 31.2802 19.6863C31.9781 19.0402 32.02 17.9506 31.3738 17.2528L23.0163 8.22663C22.1984 7.34331 20.8016 7.34331 19.9837 8.22663L11.6262 17.2528C10.98 17.9506 11.0219 19.0402 11.7198 19.6863C12.4176 20.3325 13.5072 20.2906 14.1533 19.5927L21.5 11.6583L28.8467 19.5927Z" fill="#243359"/>
</svg>
