<svg width="270" height="56" viewBox="0 0 270 56" fill="none" xmlns="http://www.w3.org/2000/svg">
<path d="M64.35 26C64.71 25.628 64.95 24.998 65.07 24.11V13.49C64.95 12.602 64.71 11.972 64.35 11.6H73.134L73.728 14.57C73.464 14.33 73.212 14.186 72.972 14.138C72.744 14.078 72.426 14.048 72.018 14.048H67.662V17.558H71.262C71.586 17.558 71.874 17.54 72.126 17.504C72.378 17.456 72.624 17.354 72.864 17.198V20.366C72.624 20.21 72.378 20.114 72.126 20.078C71.874 20.03 71.592 20.006 71.28 20.006H67.662V24.11C67.782 24.998 68.022 25.628 68.382 26H64.35Z" fill="#383533"/>
<path d="M76.9553 26C77.4233 25.472 77.6693 24.842 77.6933 24.11V13.49C77.6813 13.238 77.6093 12.92 77.4773 12.536C77.3453 12.152 77.1713 11.84 76.9553 11.6H82.8053C83.7413 11.6 84.5873 11.792 85.3433 12.176C86.0993 12.56 86.6933 13.094 87.1253 13.778C87.5573 14.45 87.7733 15.2 87.7733 16.028V16.082C87.7733 18.23 86.8373 19.712 84.9653 20.528L86.3153 22.958C86.6873 23.63 87.0713 24.242 87.4673 24.794C87.8633 25.334 88.3013 25.736 88.7813 26H84.3353C84.4553 25.88 84.5153 25.7 84.5153 25.46C84.5153 25.196 84.4553 24.932 84.3353 24.668L82.5173 21.338L80.2673 21.968V24.11C80.2793 24.458 80.3393 24.788 80.4473 25.1C80.5553 25.4 80.7353 25.7 80.9873 26H76.9553ZM83.1653 18.584C83.8373 18.428 84.3413 18.158 84.6773 17.774C85.0253 17.378 85.1993 16.904 85.1993 16.352V16.136C85.1993 15.536 85.0013 15.038 84.6053 14.642C84.2093 14.246 83.6573 14.048 82.9493 14.048H80.2673V19.322L83.1653 18.584Z" fill="#383533"/>
<path d="M91.5114 26C91.7634 25.724 91.9434 25.412 92.0514 25.064C92.1714 24.704 92.2374 24.386 92.2494 24.11V13.49C92.2374 13.214 92.1714 12.902 92.0514 12.554C91.9434 12.194 91.7634 11.876 91.5114 11.6H95.5434C95.2914 11.876 95.1114 12.194 95.0034 12.554C94.8954 12.902 94.8354 13.214 94.8234 13.49V24.11C94.8354 24.386 94.8954 24.704 95.0034 25.064C95.1114 25.412 95.2914 25.724 95.5434 26H91.5114Z" fill="#383533"/>
<path d="M99.1066 26C99.5386 25.52 99.7846 24.962 99.8446 24.326V13.544C99.8206 12.776 99.5746 12.128 99.1066 11.6H107.981L108.575 14.642C108.323 14.378 108.053 14.216 107.765 14.156C107.477 14.084 107.111 14.048 106.667 14.048H102.419V17.54H106.379C106.703 17.54 106.985 17.522 107.225 17.486C107.477 17.438 107.723 17.336 107.963 17.18V20.366C107.723 20.21 107.477 20.114 107.225 20.078C106.985 20.03 106.715 20.006 106.415 20.006H102.419V23.552H107.243C107.687 23.552 108.071 23.522 108.395 23.462C108.719 23.39 108.989 23.228 109.205 22.976L108.539 26.018L99.1066 26Z" fill="#383533"/>
<path d="M112.537 26C112.777 25.7 112.951 25.4 113.059 25.1C113.179 24.788 113.245 24.458 113.257 24.11V13.436C113.125 12.572 112.885 11.96 112.537 11.6H116.227C116.119 11.768 116.065 11.942 116.065 12.122C116.065 12.266 116.113 12.452 116.209 12.68L121.285 20.564V13.49C121.261 12.806 121.021 12.176 120.565 11.6H124.597C124.141 12.176 123.901 12.806 123.877 13.49V24.146C123.889 24.506 123.949 24.83 124.057 25.118C124.177 25.406 124.357 25.7 124.597 26H120.853C121.057 25.796 121.159 25.532 121.159 25.208C121.159 25.052 121.123 24.884 121.051 24.704L115.849 16.712V24.11C115.861 24.458 115.921 24.788 116.029 25.1C116.149 25.4 116.329 25.7 116.569 26H112.537Z" fill="#383533"/>
<path d="M128.239 26C128.419 25.82 128.551 25.58 128.635 25.28C128.731 24.968 128.815 24.62 128.887 24.236V13.364C128.815 12.98 128.731 12.638 128.635 12.338C128.551 12.026 128.419 11.78 128.239 11.6H133.423C134.767 11.6 135.967 11.906 137.023 12.518C138.091 13.118 138.919 13.952 139.507 15.02C140.107 16.088 140.407 17.288 140.407 18.62V18.98C140.407 20.312 140.107 21.512 139.507 22.58C138.919 23.648 138.091 24.488 137.023 25.1C135.967 25.7 134.767 26 133.423 26H128.239ZM133.297 23.552C134.725 23.552 135.835 23.144 136.627 22.328C137.419 21.512 137.815 20.39 137.815 18.962V18.638C137.815 17.21 137.419 16.088 136.627 15.272C135.835 14.456 134.725 14.048 133.297 14.048H131.461V23.552H133.297Z" fill="#383533"/>
<path d="M147.94 26.27C146.224 26.27 144.688 25.874 143.332 25.082V21.536C143.752 22.28 144.34 22.844 145.096 23.228C145.864 23.612 146.74 23.81 147.724 23.822C148.504 23.822 149.212 23.696 149.848 23.444C150.496 23.192 150.844 22.82 150.892 22.328C150.94 21.932 150.838 21.59 150.586 21.302C150.334 21.014 150.004 20.768 149.596 20.564C149.2 20.36 148.642 20.126 147.922 19.862C146.962 19.502 146.17 19.16 145.546 18.836C144.934 18.512 144.406 18.068 143.962 17.504C143.518 16.94 143.29 16.232 143.278 15.38C143.278 14.612 143.494 13.922 143.926 13.31C144.37 12.686 144.988 12.2 145.78 11.852C146.572 11.504 147.484 11.33 148.516 11.33C150.16 11.33 151.522 11.696 152.602 12.428V15.812C152.134 15.152 151.516 14.654 150.748 14.318C149.98 13.97 149.212 13.796 148.444 13.796C147.724 13.796 147.124 13.922 146.644 14.174C146.164 14.426 145.924 14.804 145.924 15.308C145.924 15.668 146.056 15.98 146.32 16.244C146.584 16.508 146.914 16.736 147.31 16.928C147.706 17.108 148.252 17.324 148.948 17.576C149.92 17.924 150.706 18.254 151.306 18.566C151.918 18.878 152.44 19.31 152.872 19.862C153.316 20.414 153.538 21.104 153.538 21.932C153.538 22.796 153.292 23.558 152.8 24.218C152.32 24.878 151.654 25.388 150.802 25.748C149.962 26.096 149.008 26.27 147.94 26.27Z" fill="#383533"/>
<path d="M171.054 26.216C169.686 26.216 168.438 25.886 167.31 25.226C166.182 24.554 165.288 23.654 164.628 22.526C163.98 21.386 163.656 20.138 163.656 18.782C163.656 17.438 163.98 16.202 164.628 15.074C165.288 13.934 166.182 13.034 167.31 12.374C168.438 11.702 169.686 11.366 171.054 11.366C172.386 11.366 173.616 11.702 174.744 12.374C175.872 13.034 176.766 13.934 177.426 15.074C178.098 16.214 178.434 17.45 178.434 18.782C178.434 20.126 178.098 21.368 177.426 22.508C176.766 23.648 175.872 24.554 174.744 25.226C173.616 25.886 172.386 26.216 171.054 26.216ZM171.054 23.768C171.966 23.768 172.788 23.546 173.52 23.102C174.252 22.646 174.822 22.04 175.23 21.284C175.65 20.516 175.86 19.682 175.86 18.782C175.86 17.882 175.65 17.054 175.23 16.298C174.822 15.53 174.252 14.924 173.52 14.48C172.788 14.036 171.966 13.814 171.054 13.814C170.13 13.814 169.302 14.036 168.57 14.48C167.838 14.924 167.268 15.524 166.86 16.28C166.452 17.036 166.248 17.87 166.248 18.782C166.248 19.694 166.452 20.534 166.86 21.302C167.268 22.058 167.838 22.658 168.57 23.102C169.302 23.546 170.13 23.768 171.054 23.768Z" fill="#383533"/>
<path d="M181.448 26C181.664 25.772 181.826 25.478 181.934 25.118C182.042 24.758 182.12 24.422 182.168 24.11V13.49C182.12 13.178 182.042 12.842 181.934 12.482C181.826 12.122 181.664 11.828 181.448 11.6H190.214L190.826 14.57C190.562 14.33 190.31 14.186 190.07 14.138C189.83 14.078 189.506 14.048 189.098 14.048H184.742V17.558H188.342C188.666 17.558 188.954 17.54 189.206 17.504C189.47 17.456 189.722 17.354 189.962 17.198V20.366C189.722 20.21 189.476 20.114 189.224 20.078C188.972 20.03 188.69 20.006 188.378 20.006H184.742V24.11C184.79 24.422 184.868 24.758 184.976 25.118C185.096 25.478 185.264 25.772 185.48 26H181.448Z" fill="#383533"/>
<path d="M200.807 26C201.059 25.724 201.239 25.412 201.347 25.064C201.455 24.704 201.515 24.386 201.527 24.11V13.49C201.515 13.214 201.455 12.902 201.347 12.554C201.239 12.194 201.059 11.876 200.807 11.6H204.839C204.587 11.876 204.407 12.194 204.299 12.554C204.191 12.902 204.131 13.214 204.119 13.49V23.552H209.051C209.435 23.552 209.759 23.516 210.023 23.444C210.299 23.372 210.587 23.186 210.887 22.886L210.329 26H200.807Z" fill="#383533"/>
<path d="M213.132 26C213.612 25.544 214.002 24.944 214.302 24.2L217.902 13.076C217.95 12.788 217.974 12.59 217.974 12.482C217.974 12.11 217.908 11.816 217.776 11.6H222.06C221.928 11.816 221.862 12.11 221.862 12.482C221.862 12.722 221.892 12.956 221.952 13.184L225.606 24.362C225.858 24.986 226.224 25.532 226.704 26H222.762C222.882 25.844 222.942 25.55 222.942 25.118C222.942 24.842 222.918 24.608 222.87 24.416L222.348 22.76L217.488 22.742L216.93 24.47C216.894 24.662 216.876 24.86 216.876 25.064C216.876 25.52 216.948 25.832 217.092 26H213.132ZM219.9 14.534L218.01 20.366H221.826L219.9 14.534Z" fill="#383533"/>
<path d="M229.251 26C229.491 25.7 229.665 25.4 229.773 25.1C229.893 24.788 229.959 24.458 229.971 24.11V13.436C229.839 12.572 229.599 11.96 229.251 11.6H232.941C232.833 11.768 232.779 11.942 232.779 12.122C232.779 12.266 232.827 12.452 232.923 12.68L237.999 20.564V13.49C237.975 12.806 237.735 12.176 237.279 11.6H241.311C240.855 12.176 240.615 12.806 240.591 13.49V24.146C240.603 24.506 240.663 24.83 240.771 25.118C240.891 25.406 241.071 25.7 241.311 26H237.567C237.771 25.796 237.873 25.532 237.873 25.208C237.873 25.052 237.837 24.884 237.765 24.704L232.563 16.712V24.11C232.575 24.458 232.635 24.788 232.743 25.1C232.863 25.4 233.043 25.7 233.283 26H229.251Z" fill="#383533"/>
<path d="M244.845 26C245.277 25.52 245.523 24.962 245.583 24.326V13.544C245.559 12.776 245.313 12.128 244.845 11.6H253.719L254.313 14.642C254.061 14.378 253.791 14.216 253.503 14.156C253.215 14.084 252.849 14.048 252.405 14.048H248.157V17.54H252.117C252.441 17.54 252.723 17.522 252.963 17.486C253.215 17.438 253.461 17.336 253.701 17.18V20.366C253.461 20.21 253.215 20.114 252.963 20.078C252.723 20.03 252.453 20.006 252.153 20.006H248.157V23.552H252.981C253.425 23.552 253.809 23.522 254.133 23.462C254.457 23.39 254.727 23.228 254.943 22.976L254.277 26.018L244.845 26Z" fill="#383533"/>
<path d="M68.844 44.12C67.924 44.12 67.076 43.9 66.3 43.46C65.524 43.012 64.908 42.412 64.452 41.66C64.004 40.9 63.78 40.076 63.78 39.188C63.78 38.292 64.008 37.468 64.464 36.716C64.928 35.964 65.552 35.368 66.336 34.928C67.12 34.48 67.976 34.256 68.904 34.256C69.432 34.256 69.904 34.316 70.32 34.436C70.736 34.556 71.144 34.74 71.544 34.988V37.28C71.512 37.24 71.376 37.088 71.136 36.824C70.904 36.552 70.588 36.332 70.188 36.164C69.788 35.988 69.34 35.9 68.844 35.9C68.212 35.9 67.644 36.052 67.14 36.356C66.636 36.652 66.24 37.052 65.952 37.556C65.664 38.052 65.52 38.596 65.52 39.188C65.52 39.788 65.668 40.344 65.964 40.856C66.26 41.368 66.664 41.776 67.176 42.08C67.696 42.376 68.272 42.512 68.904 42.488C69.392 42.464 69.804 42.384 70.14 42.248C70.484 42.104 70.748 41.952 70.932 41.792C71.124 41.624 71.328 41.412 71.544 41.156V43.424C71.216 43.64 70.816 43.812 70.344 43.94C69.88 44.06 69.38 44.12 68.844 44.12Z" fill="#383533"/>
<path d="M78.6739 44.144C77.7619 44.144 76.9299 43.924 76.1779 43.484C75.4259 43.036 74.8299 42.436 74.3899 41.684C73.9579 40.924 73.7419 40.092 73.7419 39.188C73.7419 38.292 73.9579 37.468 74.3899 36.716C74.8299 35.956 75.4259 35.356 76.1779 34.916C76.9299 34.468 77.7619 34.244 78.6739 34.244C79.5619 34.244 80.3819 34.468 81.1339 34.916C81.8859 35.356 82.4819 35.956 82.9219 36.716C83.3699 37.476 83.5939 38.3 83.5939 39.188C83.5939 40.084 83.3699 40.912 82.9219 41.672C82.4819 42.432 81.8859 43.036 81.1339 43.484C80.3819 43.924 79.5619 44.144 78.6739 44.144ZM78.6739 42.512C79.2819 42.512 79.8299 42.364 80.3179 42.068C80.8059 41.764 81.1859 41.36 81.4579 40.856C81.7379 40.344 81.8779 39.788 81.8779 39.188C81.8779 38.588 81.7379 38.036 81.4579 37.532C81.1859 37.02 80.8059 36.616 80.3179 36.32C79.8299 36.024 79.2819 35.876 78.6739 35.876C78.0579 35.876 77.5059 36.024 77.0179 36.32C76.5299 36.616 76.1499 37.016 75.8779 37.52C75.6059 38.024 75.4699 38.58 75.4699 39.188C75.4699 39.796 75.6059 40.356 75.8779 40.868C76.1499 41.372 76.5299 41.772 77.0179 42.068C77.5059 42.364 78.0579 42.512 78.6739 42.512Z" fill="#383533"/>
<path d="M89.3027 44.132C88.6787 44.132 88.1147 43.996 87.6107 43.724C87.1147 43.444 86.7227 43.06 86.4347 42.572C86.1547 42.084 86.0147 41.536 86.0147 40.928V35.66C85.9987 35.164 85.8387 34.744 85.5347 34.4H88.2227C87.9187 34.744 87.7587 35.164 87.7427 35.66V41C87.7427 41.432 87.8907 41.792 88.1867 42.08C88.4907 42.36 88.8707 42.5 89.3267 42.5H89.5787C90.0347 42.5 90.4107 42.36 90.7067 42.08C91.0107 41.792 91.1627 41.432 91.1627 41V35.66C91.1467 35.172 90.9867 34.752 90.6827 34.4H93.3587C93.0547 34.752 92.8947 35.172 92.8787 35.66V40.928C92.8787 41.544 92.7347 42.096 92.4467 42.584C92.1667 43.064 91.7747 43.444 91.2707 43.724C90.7747 43.996 90.2147 44.132 89.5907 44.132H89.3027Z" fill="#383533"/>
<path d="M95.6255 44C95.7855 43.8 95.9015 43.6 95.9735 43.4C96.0535 43.192 96.0975 42.972 96.1055 42.74V35.624C96.0175 35.048 95.8575 34.64 95.6255 34.4H98.0855C98.0135 34.512 97.9775 34.628 97.9775 34.748C97.9775 34.844 98.0095 34.968 98.0735 35.12L101.457 40.376V35.66C101.441 35.204 101.281 34.784 100.977 34.4H103.665C103.361 34.784 103.201 35.204 103.185 35.66V42.764C103.193 43.004 103.233 43.22 103.305 43.412C103.385 43.604 103.505 43.8 103.665 44H101.169C101.305 43.864 101.373 43.688 101.373 43.472C101.373 43.368 101.349 43.256 101.301 43.136L97.8335 37.808V42.74C97.8415 42.972 97.8815 43.192 97.9535 43.4C98.0335 43.6 98.1535 43.8 98.3135 44H95.6255Z" fill="#383533"/>
<path d="M108.265 44C108.433 43.816 108.553 43.608 108.625 43.376C108.697 43.136 108.737 42.924 108.745 42.74V36.032H107.161C106.905 36.032 106.645 36.06 106.381 36.116C106.125 36.172 105.921 36.276 105.769 36.428L106.261 34.4H112.957L113.437 36.428C113.277 36.276 113.069 36.172 112.813 36.116C112.557 36.06 112.305 36.032 112.057 36.032H110.461V42.74C110.469 42.924 110.509 43.136 110.581 43.376C110.661 43.608 110.785 43.816 110.953 44H108.265Z" fill="#383533"/>
<path d="M117.867 34.4C117.819 34.528 117.795 34.672 117.795 34.832C117.795 35.104 117.847 35.38 117.951 35.66L119.211 38.348L120.471 35.648C120.567 35.36 120.615 35.088 120.615 34.832C120.615 34.672 120.591 34.528 120.543 34.4H123.375C123.135 34.568 122.919 34.764 122.727 34.988C122.543 35.212 122.399 35.424 122.295 35.624L120.075 40.316V42.74C120.083 42.924 120.123 43.136 120.195 43.376C120.267 43.608 120.387 43.816 120.555 44H117.879C118.047 43.816 118.167 43.608 118.239 43.376C118.311 43.136 118.351 42.924 118.359 42.74V40.316L116.115 35.636C115.803 35.1 115.439 34.688 115.023 34.4H117.867Z" fill="#383533"/>
<path d="M129.953 44C130.121 43.816 130.241 43.608 130.313 43.376C130.385 43.136 130.425 42.924 130.433 42.74V35.66C130.425 35.476 130.385 35.268 130.313 35.036C130.241 34.796 130.121 34.584 129.953 34.4H133.841C134.465 34.4 135.029 34.528 135.533 34.784C136.045 35.04 136.445 35.396 136.733 35.852C137.021 36.3 137.165 36.8 137.165 37.352V37.388C137.165 38.156 136.965 38.816 136.565 39.368C136.173 39.92 135.537 40.32 134.657 40.568L132.161 41.312V42.74C132.169 42.924 132.209 43.136 132.281 43.376C132.353 43.608 132.473 43.816 132.641 44H129.953ZM134.093 39.056C134.549 38.944 134.885 38.748 135.101 38.468C135.325 38.18 135.437 37.852 135.437 37.484V37.424C135.437 37.024 135.305 36.692 135.041 36.428C134.777 36.164 134.409 36.032 133.937 36.032H132.161V39.548L134.093 39.056Z" fill="#383533"/>
<path d="M142.968 44.132C142.344 44.132 141.78 43.996 141.276 43.724C140.78 43.444 140.388 43.06 140.1 42.572C139.82 42.084 139.68 41.536 139.68 40.928V35.66C139.664 35.164 139.504 34.744 139.2 34.4H141.888C141.584 34.744 141.424 35.164 141.408 35.66V41C141.408 41.432 141.556 41.792 141.852 42.08C142.156 42.36 142.536 42.5 142.992 42.5H143.244C143.7 42.5 144.076 42.36 144.372 42.08C144.676 41.792 144.828 41.432 144.828 41V35.66C144.812 35.172 144.652 34.752 144.348 34.4H147.024C146.72 34.752 146.56 35.172 146.544 35.66V40.928C146.544 41.544 146.4 42.096 146.112 42.584C145.832 43.064 145.44 43.444 144.936 43.724C144.44 43.996 143.88 44.132 143.256 44.132H142.968Z" fill="#383533"/>
<path d="M149.224 44C149.392 43.816 149.512 43.608 149.584 43.376C149.656 43.136 149.696 42.924 149.704 42.74V35.66C149.696 35.476 149.656 35.268 149.584 35.036C149.512 34.796 149.392 34.584 149.224 34.4H153.172C154.156 34.4 154.944 34.628 155.536 35.084C156.136 35.54 156.436 36.172 156.436 36.98V37.064C156.42 37.776 156.116 38.356 155.524 38.804C156.012 39.012 156.368 39.316 156.592 39.716C156.824 40.108 156.94 40.532 156.94 40.988V41.12C156.94 41.672 156.8 42.168 156.52 42.608C156.24 43.048 155.844 43.392 155.332 43.64C154.82 43.88 154.236 44 153.58 44H149.224ZM153.148 38.42C154.188 38.148 154.708 37.708 154.708 37.1V37.064C154.708 36.744 154.608 36.492 154.408 36.308C154.208 36.124 153.852 36.032 153.34 36.032H151.432V38.852L153.148 38.42ZM153.4 42.368C154.072 42.368 154.54 42.24 154.804 41.984C155.076 41.728 155.212 41.408 155.212 41.024V40.904C155.212 40.592 155.08 40.328 154.816 40.112C154.56 39.896 154.22 39.788 153.796 39.788C153.62 39.788 153.424 39.812 153.208 39.86L151.432 40.376V42.368H153.4Z" fill="#383533"/>
<path d="M158.972 44C159.14 43.816 159.26 43.608 159.332 43.376C159.404 43.136 159.444 42.924 159.452 42.74V35.66C159.444 35.476 159.404 35.268 159.332 35.036C159.26 34.796 159.14 34.584 158.972 34.4H161.66C161.492 34.584 161.372 34.796 161.3 35.036C161.228 35.268 161.188 35.476 161.18 35.66V42.368H164.468C164.724 42.368 164.94 42.344 165.116 42.296C165.3 42.248 165.492 42.124 165.692 41.924L165.32 44H158.972Z" fill="#383533"/>
<path d="M167.809 44C167.977 43.816 168.097 43.608 168.169 43.376C168.249 43.136 168.293 42.924 168.301 42.74V35.66C168.293 35.476 168.249 35.268 168.169 35.036C168.097 34.796 167.977 34.584 167.809 34.4H170.497C170.329 34.584 170.209 34.796 170.137 35.036C170.065 35.268 170.025 35.476 170.017 35.66V42.74C170.025 42.924 170.065 43.136 170.137 43.376C170.209 43.608 170.329 43.816 170.497 44H167.809Z" fill="#383533"/>
<path d="M177.629 44.12C176.709 44.12 175.861 43.9 175.085 43.46C174.309 43.012 173.693 42.412 173.237 41.66C172.789 40.9 172.565 40.076 172.565 39.188C172.565 38.292 172.793 37.468 173.249 36.716C173.713 35.964 174.337 35.368 175.121 34.928C175.905 34.48 176.761 34.256 177.689 34.256C178.217 34.256 178.689 34.316 179.105 34.436C179.521 34.556 179.929 34.74 180.329 34.988V37.28C180.297 37.24 180.161 37.088 179.921 36.824C179.689 36.552 179.373 36.332 178.973 36.164C178.573 35.988 178.125 35.9 177.629 35.9C176.997 35.9 176.429 36.052 175.925 36.356C175.421 36.652 175.025 37.052 174.737 37.556C174.449 38.052 174.305 38.596 174.305 39.188C174.305 39.788 174.453 40.344 174.749 40.856C175.045 41.368 175.449 41.776 175.961 42.08C176.481 42.376 177.057 42.512 177.689 42.488C178.177 42.464 178.589 42.384 178.925 42.248C179.269 42.104 179.533 41.952 179.717 41.792C179.909 41.624 180.113 41.412 180.329 41.156V43.424C180.001 43.64 179.601 43.812 179.129 43.94C178.665 44.06 178.165 44.12 177.629 44.12Z" fill="#383533"/>
<path d="M187.44 44C187.552 43.872 187.64 43.696 187.704 43.472C187.776 43.24 187.828 43.024 187.86 42.824V35.576C187.828 35.376 187.776 35.164 187.704 34.94C187.64 34.708 187.552 34.528 187.44 34.4H190.896C191.792 34.4 192.592 34.604 193.296 35.012C194.008 35.412 194.56 35.968 194.952 36.68C195.352 37.392 195.552 38.192 195.552 39.08V39.32C195.552 40.208 195.352 41.008 194.952 41.72C194.56 42.432 194.008 42.992 193.296 43.4C192.592 43.8 191.792 44 190.896 44H187.44ZM190.812 42.368C191.764 42.368 192.504 42.096 193.032 41.552C193.56 41.008 193.824 40.26 193.824 39.308V39.092C193.824 38.14 193.56 37.392 193.032 36.848C192.504 36.304 191.764 36.032 190.812 36.032H189.588V42.368H190.812Z" fill="#383533"/>
<path d="M197.45 44C197.738 43.68 197.902 43.308 197.942 42.884V35.696C197.926 35.184 197.762 34.752 197.45 34.4H203.366L203.762 36.428C203.594 36.252 203.414 36.144 203.222 36.104C203.03 36.056 202.786 36.032 202.49 36.032H199.658V38.36H202.298C202.514 38.36 202.702 38.348 202.862 38.324C203.03 38.292 203.193 38.224 203.354 38.12V40.244C203.193 40.14 203.03 40.076 202.862 40.052C202.702 40.02 202.521 40.004 202.322 40.004H199.658V42.368H202.874C203.17 42.368 203.426 42.348 203.642 42.308C203.858 42.26 204.038 42.152 204.182 41.984L203.738 44.012L197.45 44Z" fill="#383533"/>
<path d="M206.331 44C206.475 43.848 206.583 43.652 206.655 43.412C206.727 43.172 206.779 42.948 206.811 42.74V35.66C206.779 35.452 206.727 35.228 206.655 34.988C206.583 34.748 206.475 34.552 206.331 34.4H212.175L212.583 36.38C212.407 36.22 212.239 36.124 212.079 36.092C211.919 36.052 211.703 36.032 211.431 36.032H208.527V38.372H210.927C211.143 38.372 211.335 38.36 211.503 38.336C211.679 38.304 211.847 38.236 212.007 38.132V40.244C211.847 40.14 211.683 40.076 211.515 40.052C211.347 40.02 211.159 40.004 210.951 40.004H208.527V42.74C208.559 42.948 208.611 43.172 208.683 43.412C208.763 43.652 208.875 43.848 209.019 44H206.331Z" fill="#383533"/>
<path d="M214.561 44C214.849 43.68 215.013 43.308 215.053 42.884V35.696C215.037 35.184 214.873 34.752 214.561 34.4H220.477L220.873 36.428C220.705 36.252 220.525 36.144 220.333 36.104C220.141 36.056 219.897 36.032 219.601 36.032H216.769V38.36H219.409C219.625 38.36 219.813 38.348 219.973 38.324C220.141 38.292 220.305 38.224 220.465 38.12V40.244C220.305 40.14 220.141 40.076 219.973 40.052C219.813 40.02 219.633 40.004 219.433 40.004H216.769V42.368H219.985C220.281 42.368 220.537 42.348 220.753 42.308C220.969 42.26 221.149 42.152 221.293 41.984L220.849 44.012L214.561 44Z" fill="#383533"/>
<path d="M223.515 44C223.675 43.8 223.791 43.6 223.863 43.4C223.943 43.192 223.987 42.972 223.995 42.74V35.624C223.907 35.048 223.747 34.64 223.515 34.4H225.975C225.903 34.512 225.867 34.628 225.867 34.748C225.867 34.844 225.899 34.968 225.963 35.12L229.347 40.376V35.66C229.331 35.204 229.171 34.784 228.867 34.4H231.555C231.251 34.784 231.091 35.204 231.075 35.66V42.764C231.083 43.004 231.123 43.22 231.195 43.412C231.275 43.604 231.395 43.8 231.555 44H229.059C229.195 43.864 229.263 43.688 229.263 43.472C229.263 43.368 229.239 43.256 229.191 43.136L225.723 37.808V42.74C225.731 42.972 225.771 43.192 225.843 43.4C225.923 43.6 226.043 43.8 226.203 44H223.515Z" fill="#383533"/>
<path d="M233.982 44C234.102 43.88 234.19 43.72 234.246 43.52C234.31 43.312 234.366 43.08 234.414 42.824V35.576C234.366 35.32 234.31 35.092 234.246 34.892C234.19 34.684 234.102 34.52 233.982 34.4H237.438C238.334 34.4 239.134 34.604 239.838 35.012C240.55 35.412 241.102 35.968 241.494 36.68C241.894 37.392 242.094 38.192 242.094 39.08V39.32C242.094 40.208 241.894 41.008 241.494 41.72C241.102 42.432 240.55 42.992 239.838 43.4C239.134 43.8 238.334 44 237.438 44H233.982ZM237.354 42.368C238.306 42.368 239.046 42.096 239.574 41.552C240.102 41.008 240.366 40.26 240.366 39.308V39.092C240.366 38.14 240.102 37.392 239.574 36.848C239.046 36.304 238.306 36.032 237.354 36.032H236.13V42.368H237.354Z" fill="#383533"/>
<path d="M244.036 44C244.324 43.68 244.488 43.308 244.528 42.884V35.696C244.512 35.184 244.348 34.752 244.036 34.4H249.952L250.348 36.428C250.18 36.252 250 36.144 249.808 36.104C249.616 36.056 249.372 36.032 249.076 36.032H246.244V38.36H248.884C249.1 38.36 249.288 38.348 249.448 38.324C249.616 38.292 249.78 38.224 249.94 38.12V40.244C249.78 40.14 249.616 40.076 249.448 40.052C249.288 40.02 249.108 40.004 248.908 40.004H246.244V42.368H249.46C249.756 42.368 250.012 42.348 250.228 42.308C250.444 42.26 250.624 42.152 250.768 41.984L250.324 44.012L244.036 44Z" fill="#383533"/>
<path d="M253.002 44C253.314 43.648 253.478 43.228 253.494 42.74V35.66C253.486 35.492 253.438 35.28 253.35 35.024C253.262 34.768 253.146 34.56 253.002 34.4H256.902C257.526 34.4 258.09 34.528 258.594 34.784C259.098 35.04 259.494 35.396 259.782 35.852C260.07 36.3 260.214 36.8 260.214 37.352V37.388C260.214 38.82 259.59 39.808 258.342 40.352L259.242 41.972C259.49 42.42 259.746 42.828 260.01 43.196C260.274 43.556 260.566 43.824 260.886 44H257.922C258.002 43.92 258.042 43.8 258.042 43.64C258.042 43.464 258.002 43.288 257.922 43.112L256.71 40.892L255.21 41.312V42.74C255.218 42.972 255.258 43.192 255.33 43.4C255.402 43.6 255.522 43.8 255.69 44H253.002ZM257.142 39.056C257.59 38.952 257.926 38.772 258.15 38.516C258.382 38.252 258.498 37.936 258.498 37.568V37.424C258.498 37.024 258.366 36.692 258.102 36.428C257.838 36.164 257.47 36.032 256.998 36.032H255.21V39.548L257.142 39.056Z" fill="#383533"/>
<path d="M265.634 44.18C264.49 44.18 263.466 43.916 262.562 43.388V41.024C262.842 41.52 263.234 41.896 263.738 42.152C264.25 42.408 264.834 42.54 265.49 42.548C266.01 42.548 266.482 42.464 266.906 42.296C267.338 42.128 267.57 41.88 267.602 41.552C267.634 41.288 267.566 41.06 267.398 40.868C267.23 40.676 267.01 40.512 266.738 40.376C266.474 40.24 266.102 40.084 265.622 39.908C264.982 39.668 264.454 39.44 264.038 39.224C263.63 39.008 263.278 38.712 262.982 38.336C262.686 37.96 262.534 37.488 262.526 36.92C262.526 36.408 262.67 35.948 262.958 35.54C263.254 35.124 263.666 34.8 264.194 34.568C264.722 34.336 265.33 34.22 266.018 34.22C267.114 34.22 268.022 34.464 268.742 34.952V37.208C268.43 36.768 268.018 36.436 267.506 36.212C266.994 35.98 266.482 35.864 265.97 35.864C265.49 35.864 265.09 35.948 264.77 36.116C264.45 36.284 264.29 36.536 264.29 36.872C264.29 37.112 264.378 37.32 264.554 37.496C264.73 37.672 264.95 37.824 265.214 37.952C265.478 38.072 265.842 38.216 266.306 38.384C266.954 38.616 267.478 38.836 267.878 39.044C268.286 39.252 268.634 39.54 268.922 39.908C269.218 40.276 269.366 40.736 269.366 41.288C269.366 41.864 269.202 42.372 268.874 42.812C268.554 43.252 268.11 43.592 267.542 43.832C266.982 44.064 266.346 44.18 265.634 44.18Z" fill="#383533"/>
<path fill-rule="evenodd" clip-rule="evenodd" d="M41.4545 3.49091H6.54545C4.85848 3.49091 3.49091 4.85848 3.49091 6.54545V11.7471L19.2022 15.3623C19.2621 11.2347 20.5626 5.23636 26.7088 5.23636C29.4568 5.23636 31.7025 7.37818 31.8545 10.077C31.393 9.80569 30.8547 9.65002 30.2799 9.65002C28.5665 9.65002 27.1775 11.0333 27.1775 12.7396C27.1775 13.0439 27.2217 14.5564 27.304 15.706L44.5091 11.7471V6.54545C44.5091 4.85848 43.1415 3.49091 41.4545 3.49091ZM22.2545 23.1409L3.49091 18.596V22.6562L22.2545 26.9738V23.1409ZM22.2545 30.9954L3.49091 26.4506V30.1692C3.49091 30.7321 3.52486 31.2909 3.59148 31.843L22.2545 36.1374V30.9954ZM25.7455 36.1374V30.9954L44.5091 26.4506V30.1692C44.5091 30.7321 44.4751 31.2909 44.4085 31.843L25.7455 36.1374ZM22.2545 40.159L4.72725 35.9137C5.63496 37.9247 7.01767 39.7177 8.79238 41.1214L21.5638 51.2224C21.7817 51.3947 22.0134 51.5408 22.2545 51.6605V40.159ZM25.7455 51.6605V40.159L43.2728 35.9137C42.365 37.9247 40.9823 39.7177 39.2076 41.1214L26.4362 51.2224C26.2183 51.3947 25.9866 51.5408 25.7455 51.6605ZM25.7455 26.9738V23.1409L44.5091 18.596V22.6562L25.7455 26.9738ZM6.54545 0C2.9305 0 0 2.9305 0 6.54545V30.1692C0 35.5057 2.44124 40.549 6.62684 43.8594L19.3982 53.9604C22.0953 56.0935 25.9047 56.0935 28.6018 53.9604L41.3732 43.8594C45.5588 40.549 48 35.5057 48 30.1692V6.54545C48 2.9305 45.0695 0 41.4545 0H6.54545ZM12.2182 41.8909L8.29091 38.4L20.0727 40.5818L12.2182 41.8909ZM13.3091 42.7636L16.8 45.8182L20.2909 41.4545L13.3091 42.7636ZM21.1636 49.3091L17.6727 46.2545L20.7273 42.3273L21.1636 49.3091ZM39.4909 38.4L35.5636 41.8909L27.7091 40.5818L39.4909 38.4ZM30.9818 45.8182L34.4727 42.7636L27.4909 41.4545L30.9818 45.8182ZM30.1091 46.2545L26.6182 49.3091L27.0545 42.3273L30.1091 46.2545Z" fill="#243359"/>
</svg>
