<svg width="48" height="56" viewBox="0 0 48 56" fill="none" xmlns="http://www.w3.org/2000/svg">
<path fill-rule="evenodd" clip-rule="evenodd" d="M41.4545 3.49091H6.54545C4.85848 3.49091 3.49091 4.85848 3.49091 6.54545V11.7471L19.2022 15.3623C19.2621 11.2347 20.5626 5.23636 26.7088 5.23636C29.4568 5.23636 31.7025 7.37818 31.8545 10.077C31.393 9.80569 30.8547 9.65002 30.2799 9.65002C28.5665 9.65002 27.1775 11.0333 27.1775 12.7396C27.1775 13.0439 27.2217 14.5564 27.304 15.706L44.5091 11.7471V6.54545C44.5091 4.85848 43.1415 3.49091 41.4545 3.49091ZM22.2545 23.1409L3.49091 18.596V22.6562L22.2545 26.9738V23.1409ZM22.2545 30.9954L3.49091 26.4506V30.1692C3.49091 30.7321 3.52486 31.2909 3.59148 31.843L22.2545 36.1374V30.9954ZM25.7455 36.1374V30.9954L44.5091 26.4506V30.1692C44.5091 30.7321 44.4751 31.2909 44.4085 31.843L25.7455 36.1374ZM22.2545 40.159L4.72725 35.9137C5.63496 37.9247 7.01767 39.7177 8.79238 41.1214L21.5638 51.2224C21.7817 51.3947 22.0134 51.5408 22.2545 51.6605V40.159ZM25.7455 51.6605V40.159L43.2728 35.9137C42.365 37.9247 40.9823 39.7177 39.2076 41.1214L26.4362 51.2224C26.2183 51.3947 25.9866 51.5408 25.7455 51.6605ZM25.7455 26.9738V23.1409L44.5091 18.596V22.6562L25.7455 26.9738ZM6.54545 0C2.9305 0 0 2.9305 0 6.54545V30.1692C0 35.5057 2.44124 40.549 6.62684 43.8594L19.3982 53.9604C22.0953 56.0935 25.9047 56.0935 28.6018 53.9604L41.3732 43.8594C45.5588 40.549 48 35.5057 48 30.1692V6.54545C48 2.9305 45.0695 0 41.4545 0H6.54545ZM12.2182 41.8909L8.29091 38.4L20.0727 40.5818L12.2182 41.8909ZM13.3091 42.7636L16.8 45.8182L20.2909 41.4545L13.3091 42.7636ZM21.1636 49.3091L17.6727 46.2545L20.7273 42.3273L21.1636 49.3091ZM39.4909 38.4L35.5636 41.8909L27.7091 40.5818L39.4909 38.4ZM30.9818 45.8182L34.4727 42.7636L27.4909 41.4545L30.9818 45.8182ZM30.1091 46.2545L26.6182 49.3091L27.0545 42.3273L30.1091 46.2545Z" fill="#243359"/>
</svg>
